<?xml version="1.0" encoding="UTF-8" standalone="no"?>
<!-- Created with Inkscape (http://www.inkscape.org/) -->

<svg
   xmlns:dc="http://purl.org/dc/elements/1.1/"
   xmlns:cc="http://creativecommons.org/ns#"
   xmlns:rdf="http://www.w3.org/1999/02/22-rdf-syntax-ns#"
   xmlns:svg="http://www.w3.org/2000/svg"
   xmlns="http://www.w3.org/2000/svg"
   xmlns:sodipodi="http://sodipodi.sourceforge.net/DTD/sodipodi-0.dtd"
   xmlns:inkscape="http://www.inkscape.org/namespaces/inkscape"
   width="146.84805"
   height="34.51516"
   id="svg2"
   version="1.1"
   inkscape:version="0.48.4 r9939"
   sodipodi:docname="logo-bold-path.svg">
  <defs
     id="defs4">
    <clipPath
       id="clipPath4974"
       clipPathUnits="userSpaceOnUse">
      <path
         id="path4976"
         d="m 58,58 1108,0 0,1467 -1108,0 0,-1467 z"
         inkscape:connector-curvature="0" />
    </clipPath>
    <clipPath
       id="clipPath4952"
       clipPathUnits="userSpaceOnUse">
      <path
         id="path4954"
         d="M 0,0 400,0 400,210 0,210 0,0 z"
         inkscape:connector-curvature="0" />
    </clipPath>
    <clipPath
       id="clipPath4948"
       clipPathUnits="userSpaceOnUse">
      <path
         id="path4950"
         d="M 0,0 400,0 400,210 0,210 0,0 z"
         inkscape:connector-curvature="0" />
    </clipPath>
    <clipPath
       id="clipPath4940"
       clipPathUnits="userSpaceOnUse">
      <path
         id="path4942"
         d="m 343,965 400,0 0,210 -400,0 0,-210 z"
         inkscape:connector-curvature="0" />
    </clipPath>
    <clipPath
       id="clipPath4918"
       clipPathUnits="userSpaceOnUse">
      <path
         id="path4920"
         d="M 0,0 400,0 400,271 0,271 0,0 z"
         inkscape:connector-curvature="0" />
    </clipPath>
    <clipPath
       id="clipPath4914"
       clipPathUnits="userSpaceOnUse">
      <path
         id="path4916"
         d="M 0,0 400,0 400,271 0,271 0,0 z"
         inkscape:connector-curvature="0" />
    </clipPath>
    <clipPath
       id="clipPath4906"
       clipPathUnits="userSpaceOnUse">
      <path
         id="path4908"
         d="m 748,734 400,0 0,271 -400,0 0,-271 z"
         inkscape:connector-curvature="0" />
    </clipPath>
    <clipPath
       id="clipPath4884"
       clipPathUnits="userSpaceOnUse">
      <path
         id="path4886"
         d="M 0,0 400,0 400,599 0,599 0,0 z"
         inkscape:connector-curvature="0" />
    </clipPath>
    <clipPath
       id="clipPath4880"
       clipPathUnits="userSpaceOnUse">
      <path
         id="path4882"
         d="M 0,0 400,0 400,599 0,599 0,0 z"
         inkscape:connector-curvature="0" />
    </clipPath>
    <clipPath
       id="clipPath4872"
       clipPathUnits="userSpaceOnUse">
      <path
         id="path4874"
         d="m 343,362 400,0 0,599 -400,0 0,-599 z"
         inkscape:connector-curvature="0" />
    </clipPath>
    <clipPath
       id="clipPath4850"
       clipPathUnits="userSpaceOnUse">
      <path
         id="path4852"
         d="M 0,0 400,0 400,263 0,263 0,0 z"
         inkscape:connector-curvature="0" />
    </clipPath>
    <clipPath
       id="clipPath4846"
       clipPathUnits="userSpaceOnUse">
      <path
         id="path4848"
         d="M 0,0 400,0 400,263 0,263 0,0 z"
         inkscape:connector-curvature="0" />
    </clipPath>
    <clipPath
       id="clipPath4838"
       clipPathUnits="userSpaceOnUse">
      <path
         id="path4840"
         d="m 343,96 400,0 0,263 -400,0 0,-263 z"
         inkscape:connector-curvature="0" />
    </clipPath>
    <clipPath
       id="clipPath4816"
       clipPathUnits="userSpaceOnUse">
      <path
         id="path4818"
         d="M 0,0 400,0 400,667 0,667 0,0 z"
         inkscape:connector-curvature="0" />
    </clipPath>
    <clipPath
       id="clipPath4812"
       clipPathUnits="userSpaceOnUse">
      <path
         id="path4814"
         d="M 0,0 400,0 400,667 0,667 0,0 z"
         inkscape:connector-curvature="0" />
    </clipPath>
    <clipPath
       id="clipPath4804"
       clipPathUnits="userSpaceOnUse">
      <path
         id="path4806"
         d="m 748,63 400,0 0,667 -400,0 0,-667 z"
         inkscape:connector-curvature="0" />
    </clipPath>
    <clipPath
       id="clipPath4792"
       clipPathUnits="userSpaceOnUse">
      <path
         id="path4794"
         d="m 58,58 1108,0 0,1467 -1108,0 0,-1467 z"
         inkscape:connector-curvature="0" />
    </clipPath>
    <clipPath
       id="clipPath4492"
       clipPathUnits="userSpaceOnUse">
      <path
         id="path4494"
         d="m 0,0 1527.2433,0 0,1976.4325 L 0,1976.4325 0,0 z"
         inkscape:connector-curvature="0" />
    </clipPath>
  </defs>
  <sodipodi:namedview
     id="base"
     pagecolor="#ffffff"
     bordercolor="#666666"
     borderopacity="1.0"
     inkscape:pageopacity="0.0"
     inkscape:pageshadow="2"
     inkscape:zoom="2.8"
     inkscape:cx="118.51432"
     inkscape:cy="32.705092"
     inkscape:document-units="px"
     inkscape:current-layer="layer1"
     showgrid="false"
     fit-margin-top="0"
     fit-margin-left="0"
     fit-margin-right="0"
     fit-margin-bottom="0"
     inkscape:window-width="1235"
     inkscape:window-height="738"
     inkscape:window-x="519"
     inkscape:window-y="108"
     inkscape:window-maximized="0" />
  <metadata
     id="metadata7">
    <rdf:RDF>
      <cc:Work
         rdf:about="">
        <dc:format>image/svg+xml</dc:format>
        <dc:type
           rdf:resource="http://purl.org/dc/dcmitype/StillImage" />
        <dc:title></dc:title>
      </cc:Work>
    </rdf:RDF>
  </metadata>
  <g
     inkscape:label="Layer 1"
     inkscape:groupmode="layer"
     id="layer1"
     transform="translate(-3.7188195,-3.6760015)">
    <g
       style="font-size:6.76214981px"
       id="text5322">
      <path
         d="m 16.497868,13.415887 c 1.329223,0.239393 2.396969,0.778502 3.20324,1.617329 0.806236,0.838846 1.209363,1.879328 1.209382,3.121452 -1.9e-5,1.830617 -0.621084,3.279712 -1.863196,4.34729 -1.242146,1.067581 -3.377305,1.601371 -6.405483,1.601371 l -8.9229915,0 0,-20.4273275 8.8571615,0 c 2.832682,2.05e-5 4.826372,0.4684787 5.981077,1.4053762 1.154671,0.9369356 1.732016,2.24423 1.732034,3.9218872 -1.8e-5,2.2442261 -1.263759,3.7150981 -3.791224,4.4126221 z M 15.092492,9.8530737 C 15.092478,8.3276894 14.090397,7.5649902 12.086244,7.5649736 l -3.3344024,0 0,4.7068634 3.0720784,0 c 2.179036,1.2e-5 3.268558,-0.806242 3.268572,-2.4187633 z M 12.248824,20.214357 c 2.288088,3e-6 3.432136,-0.784473 3.43215,-2.353432 -1.4e-5,-1.568947 -1.198256,-2.353423 -3.59473,-2.353432 l -3.3344024,0 0,4.706864 3.4969824,0 z"
         style="font-size:32.68372345px;font-variant:normal;font-weight:normal;writing-mode:lr-tb;fill:#333333;fill-opacity:1;fill-rule:nonzero;stroke:none;font-family:FreightSans Pro Bold;-inkscape-font-specification:FreightSans Pro"
         id="path6113" />
    </g>
    <g
       style="font-size:6.76214981px"
       id="text5326">
      <path
         d="m 26.401726,15.246167 0,8.857162 -5.034019,0 0,-14.9364858 5.034019,-0.6213977 0,2.2232675 c 0.893023,-1.5692723 2.113209,-2.3539149 3.660561,-2.3539306 0.871076,1.57e-5 1.709912,0.207148 2.516511,0.6213977 L 31.565411,13.48072 c -0.610437,-0.304538 -1.242473,-0.456811 -1.896111,-0.456822 -1.329247,1.1e-5 -2.418438,0.740766 -3.267574,2.222269 z"
         style="font-size:32.68372345px;font-variant:normal;font-weight:normal;writing-mode:lr-tb;fill:#333333;fill-opacity:1;fill-rule:nonzero;stroke:none;font-family:FreightSans Pro Bold;-inkscape-font-specification:FreightSans Pro"
         id="path6116" />
    </g>
    <g
       style="font-size:6.76214981px"
       id="text5330">
      <path
         d="m 47.939599,8.905517 -5.490842,14.478666 -0.751063,1.993859 c -0.76271,2.157101 -1.650753,3.660556 -2.664131,4.51037 -1.013394,0.849802 -2.347951,1.274706 -4.003676,1.274713 -1.590568,-7e-6 -3.094023,-0.326831 -4.51037,-0.980472 l 1.503124,-3.824139 c 1.045968,0.457484 1.830278,0.686227 2.352933,0.68623 0.545257,-3e-6 0.970327,-0.130666 1.275212,-0.391989 0.304876,-0.261329 0.59895,-0.75173 0.882225,-1.471207 l 0.424904,-1.175967 -5.948661,-15.100064 5.393094,0 3.235657,10.001211 2.941415,-10.001211 z"
         style="font-size:32.68372345px;font-variant:normal;font-weight:normal;writing-mode:lr-tb;fill:#333333;fill-opacity:1;fill-rule:nonzero;stroke:none;font-family:FreightSans Pro Bold;-inkscape-font-specification:FreightSans Pro"
         id="path6119" />
    </g>
    <g
       style="font-size:6.76214981px"
       id="text5334">
      <path
         d="m 59.86949,23.351268 c -1.351196,0.82853 -3.203418,1.242795 -5.556672,1.242795 -2.549433,0 -4.559415,-0.691882 -6.029952,-2.075648 -1.470543,-1.383762 -2.205813,-3.350356 -2.205812,-5.899787 -10e-7,-2.505529 0.757213,-4.499219 2.271643,-5.981077 1.514423,-1.4818308 3.546016,-2.2227529 6.094784,-2.2227686 2.20098,1.57e-5 4.04223,0.4249196 5.523757,1.2747131 L 58.986766,13.48072 c -1.372474,-0.783967 -2.712351,-1.175956 -4.019635,-1.175968 -1.176974,1.2e-5 -2.097766,0.381361 -2.762377,1.14405 -0.664626,0.76271 -0.996936,1.764792 -0.99693,3.006248 -6e-6,1.329246 0.348761,2.364242 1.046302,3.104994 0.697527,0.74076 1.645415,1.111138 2.843668,1.111135 1.437615,3e-6 2.777492,-0.381347 4.019635,-1.14405 z"
         style="font-size:32.68372345px;font-variant:normal;font-weight:normal;writing-mode:lr-tb;fill:#333333;fill-opacity:1;fill-rule:nonzero;stroke:none;font-family:FreightSans Pro Bold;-inkscape-font-specification:FreightSans Pro"
         id="path6122" />
    </g>
    <g
       style="font-size:6.76214981px"
       id="text5338">
      <path
         d="m 65.719804,17.632015 0,0.06483 c 0.0871,1.024697 0.473772,1.814825 1.160009,2.370388 0.686223,0.555571 1.63943,0.833354 2.859626,0.833351 1.612497,3e-6 3.268559,-0.490398 4.96819,-1.471206 l 0.490734,3.889969 c -1.612522,0.827865 -3.584436,1.241798 -5.915746,1.241798 -2.614598,0 -4.684592,-0.697368 -6.209987,-2.092105 -1.525402,-1.394734 -2.288101,-3.34487 -2.2881,-5.850415 -10e-7,-2.462307 0.762698,-4.445192 2.2881,-5.948661 1.525395,-1.5034414 3.50828,-2.2551689 5.948661,-2.2551846 2.113206,1.57e-5 3.752644,0.5775259 4.918318,1.7325326 1.165646,1.155034 1.748475,2.702044 1.748491,4.641033 -1.6e-5,1.067921 -0.108735,1.961283 -0.326159,2.680089 z m 0.03292,-2.516511 5.261433,-0.03291 0,-0.294241 c -1.1e-5,-1.938989 -0.773349,-2.908488 -2.320017,-2.9085 -0.827874,1.2e-5 -1.503298,0.310544 -2.026276,0.931597 -0.522991,0.621076 -0.828037,1.389095 -0.91514,2.304059 z"
         style="font-size:32.68372345px;font-variant:normal;font-weight:normal;writing-mode:lr-tb;fill:#333333;fill-opacity:1;fill-rule:nonzero;stroke:none;font-family:FreightSans Pro Bold;-inkscape-font-specification:FreightSans Pro"
         id="path6125" />
    </g>
    <g
       style="font-size:6.76214981px"
       id="text5342">
      <path
         d="m 92.22639,24.103329 -14.936486,0 0,-20.4273275 14.936486,0 0,4.1832134 -9.837633,0 0,3.9218871 7.909604,0 0,4.151296 -7.909604,0 0,3.987717 9.837633,0 z"
         style="font-size:32.68372345px;font-variant:normal;font-weight:normal;writing-mode:lr-tb;fill:#2298b4;fill-opacity:1;fill-rule:nonzero;stroke:none;font-family:FreightSans Pro Bold;-inkscape-font-specification:FreightSans Pro"
         id="path6128" />
    </g>
    <g
       style="font-size:6.76214981px"
       id="text5346">
      <path
         d="m 108.66634,8.905517 -5.75216,15.230727 -5.687338,0 -5.621505,-15.230727 5.393094,0 3.136909,10.426116 3.105,-10.426116 z"
         style="font-size:32.68372345px;font-variant:normal;font-weight:normal;writing-mode:lr-tb;fill:#2298b4;fill-opacity:1;fill-rule:nonzero;stroke:none;font-family:FreightSans Pro Bold;-inkscape-font-specification:FreightSans Pro"
         id="path6131" />
    </g>
    <g
       style="font-size:6.76214981px"
       id="text5350">
      <path
         d="m 115.56218,20.246274 0,-2.9085 c -1.56863,0.174224 -2.66896,0.43023 -3.30098,0.76802 -0.63205,0.337801 -0.94807,0.844494 -0.94806,1.52008 -1e-5,0.479434 0.17438,0.87159 0.52315,1.176466 0.34876,0.304884 0.80641,0.457324 1.37296,0.457321 0.95885,3e-6 1.74316,-0.337792 2.35293,-1.013387 z m 0.13067,2.026774 -0.0978,0 c -1.30731,1.547344 -2.76721,2.321015 -4.37971,2.321015 -1.3073,0 -2.40763,-0.408613 -3.30099,-1.225839 -0.89336,-0.817224 -1.34004,-1.814319 -1.34004,-2.991287 0,-3.420506 2.99594,-5.217869 8.98782,-5.392096 l 0,-0.294241 c -1e-5,-0.806577 -0.21246,-1.395059 -0.63735,-1.765448 -0.42492,-0.370367 -1.10583,-0.555556 -2.04274,-0.555567 -1.39441,1.1e-5 -3.11563,0.512024 -5.16368,1.536039 l -1.0463,-3.692479 c 2.26615,-1.1988933 4.5978,-1.7983469 6.99496,-1.7983626 2.52747,1.57e-5 4.325,0.5502629 5.3926,1.6507436 1.06756,1.100508 1.57974,2.761889 1.53653,4.984148 l -0.0329,4.51037 c -2e-5,0.501378 0.0708,0.822882 0.21245,0.964513 0.14162,0.141638 0.48473,0.234066 1.02935,0.277285 l -0.49074,3.595728 c -3.00692,0.392321 -4.88076,-0.315852 -5.6215,-2.124522 z"
         style="font-size:32.68372345px;font-variant:normal;font-weight:normal;writing-mode:lr-tb;fill:#2298b4;fill-opacity:1;fill-rule:nonzero;stroke:none;font-family:FreightSans Pro Bold;-inkscape-font-specification:FreightSans Pro"
         id="path6134" />
    </g>
    <g
       style="font-size:6.76214981px"
       id="text5354">
      <path
         d="m 136.70881,24.103329 -5.03303,0 0,-8.987825 c -1e-5,-0.871742 -0.17988,-1.492807 -0.53961,-1.863195 -0.35975,-0.370367 -0.89902,-0.555556 -1.61782,-0.555568 -0.98082,1.2e-5 -1.89579,0.381361 -2.74493,1.14405 l 0,10.262538 -5.03402,0 0,-14.9364858 5.03402,-0.6213977 0,2.4845935 c 1.52473,-1.7434897 3.22401,-2.6152409 5.09786,-2.6152566 1.50344,1.57e-5 2.68556,0.4631543 3.54635,1.3894173 0.86077,0.9262913 1.29116,2.2063233 1.29118,3.8400983 z"
         style="font-size:32.68372345px;font-variant:normal;font-weight:normal;writing-mode:lr-tb;fill:#2298b4;fill-opacity:1;fill-rule:nonzero;stroke:none;font-family:FreightSans Pro Bold;-inkscape-font-specification:FreightSans Pro"
         id="path6137" />
    </g>
    <g
       style="font-size:6.76214981px"
       id="text5358">
      <path
         d="m 149.1615,16.324387 c 0.9369,0.740764 1.40536,1.830287 1.40537,3.268572 -1e-5,1.438294 -0.6101,2.631383 -1.83028,3.579271 -1.2202,0.947889 -2.90884,1.421833 -5.06593,1.421833 -1.08987,0 -2.24489,-0.119858 -3.46507,-0.359573 -1.22019,-0.239715 -2.21163,-0.566704 -2.97433,-0.98097 l 0.98047,-3.627646 c 1.85255,0.958864 3.70478,1.438294 5.55667,1.438291 1.37246,3e-6 2.05869,-0.414261 2.05869,-1.242795 0,-0.391652 -0.196,-0.696532 -0.58798,-0.914642 -0.392,-0.218098 -1.05645,-0.43587 -1.99336,-0.653315 -1.89578,-0.371037 -3.33391,-0.937742 -4.31437,-1.700116 -0.98048,-0.762359 -1.47071,-1.851716 -1.47071,-3.268073 0,-1.438279 0.59912,-2.609591 1.79736,-3.5139394 1.19824,-0.9043196 2.83236,-1.3564865 4.90236,-1.3565022 1.00274,1.57e-5 2.09243,0.125359 3.26907,0.3760304 1.17662,0.2507019 2.14596,0.5612342 2.908,0.9315978 l -1.01239,3.5957284 c -1.87384,-0.915627 -3.61701,-1.373446 -5.22951,-1.373459 -1.24214,1.3e-5 -1.8632,0.381362 -1.8632,1.14405 0,0.392333 0.20696,0.69206 0.6209,0.899182 0.41393,0.207142 1.07838,0.408789 1.99336,0.60494 1.93966,0.413609 3.37795,0.990787 4.31488,1.731535 z"
         style="font-size:32.68372345px;font-variant:normal;font-weight:normal;writing-mode:lr-tb;fill:#2298b4;fill-opacity:1;fill-rule:nonzero;stroke:none;font-family:FreightSans Pro Bold;-inkscape-font-specification:FreightSans Pro"
         id="path6140" />
    </g>
    <g
       style="font-size:6.76214981px"
       id="text5362">
      <path
         d="m 43.395849,30.673994 c 0.458127,-0.473487 0.946407,-0.710233 1.464844,-0.710238 0.653712,5e-6 1.190947,0.247986 1.611706,0.743944 0.420749,0.495967 0.631126,1.157135 0.631132,1.983506 -6e-6,0.84151 -0.255439,1.525264 -0.7663,2.051263 -0.510872,0.526 -1.130767,0.789 -1.859688,0.789 -0.360682,0 -0.721246,-0.05641 -1.081694,-0.169219 l 0,2.3443 -1.735868,0 0,-7.483463 1.735868,-0.214275 z m 0,1.036637 0,0 0,0 0,0 0,0.01135 0,0 0,0 0,0.01135 0,0 0,0.01135 0,0.01101 0,0 0,0.01135 0,0.01135 0,0.01135 0,0.01135 0,0.01101 0,0.01135 0,0.01135 0,0.01135 0,0.01101 0,0.01135 0,0.01135 0,0.01135 0,0.01101 0,0.01135 0,0.01135 0,0.01135 0,0.01135 0,0.01101 0,0.01135 0,0.01135 0,0.01135 0,0.01101 0,0.01135 0,0.01135 0,0.01135 0,0.01101 0,0.01135 0,0.01135 0,0.01135 0,0.01135 0,0.01101 0,0.01135 0,0.01135 0,0.01135 0,0.01101 0,0.01135 0,0.0227 0,0.01101 0,0.01135 0,0.01135 0,0.01135 0,0.01101 0,0.01135 0,0.01135 0,0.0227 0,0.01101 0,0.01135 0,0.01135 0,0.01135 0,0.02236 0,0.01135 0,0.01135 0,0.01101 0,0.0227 0,0.01135 0,0.01135 0,0.01101 0,0.0227 0,0.01135 0,0.01101 0,0.0227 0,0.01135 0,0.01101 0,0.0227 0,0.01135 0,0.01135 0,0.02236 0,0.01135 0,0.02236 0,0.01135 0,0.01135 0,0.02236 0,0.01135 0,0.0227 0,0.01135 0,0.01101 0,0.0227 0,0.01135 0,0.02236 0,0.01135 0,0.02236 0,0.01135 0,0.0227 0,0.01135 0,0.02236 0,0.01135 0,0.02236 0,0.01135 0,0.0227 0,0.01101 0,0.0227 0,0.01135 0,0.02236 0,0.0227 0,0.01135 0,0.02236 0,0.01135 0,0.02236 0,0.01135 0,0.0227 0,0.02236 0,0.01135 0,0.0227 0,0.02236 0,0.01135 0,0.02236 0,0.0227 0,0.01135 0,0.02236 0,0.0227 0,0.01135 0,0.02236 0,0.0227 0,0.01101 0,0.0227 0,0.02236 0,0.01135 0,0.0227 0,0.02236 0,0.0227 0,0.01135 0,0.02236 0,0.0227 0,0.02236 0,0.01135 0,0.02236 0,0.0227 0,0.0227 0,0.01101 0,0.0227 0,0.02236 0,0.0227 0,0.02236 0,0.01135 0,0.0227 0,0.02236 0,0.0227 0,0.02236 0,0.0227 0,0.101463 c 0.217827,0.142622 0.484495,0.213932 0.800007,0.213931 0.368242,10e-7 0.655662,-0.131441 0.862259,-0.394328 0.20659,-0.262884 0.309886,-0.616053 0.309891,-1.059509 -5e-6,-0.450789 -0.0939,-0.802009 -0.281688,-1.053663 -0.187795,-0.251646 -0.458362,-0.377471 -0.8117,-0.377475 -0.323078,4e-6 -0.616,0.120154 -0.878769,0.36045 z"
         style="font-size:11.27025032px;font-variant:normal;font-weight:normal;writing-mode:lr-tb;fill:#333333;fill-opacity:1;fill-rule:nonzero;stroke:none;font-family:FreightSans Pro Bold;-inkscape-font-specification:FreightSans Pro"
         id="path6143" />
    </g>
    <g
       style="font-size:6.76214981px"
       id="text5366">
      <path
         d="m 57.134099,35.3736 -1.735525,0 0,-3.09925 c -4e-6,-0.556034 -0.240418,-0.834052 -0.721244,-0.834056 -0.353344,4e-6 -0.676419,0.131503 -0.969225,0.3945 l 0,3.538806 -1.735869,0 0,-7.449757 1.735869,-0.213931 0,3.144307 c 0.518431,-0.593637 1.108174,-0.890458 1.769231,-0.890463 0.518429,5e-6 0.924164,0.161543 1.217207,0.484613 0.293032,0.323079 0.43955,0.762635 0.439556,1.318668 z"
         style="font-size:11.27025032px;font-variant:normal;font-weight:normal;writing-mode:lr-tb;fill:#333333;fill-opacity:1;fill-rule:nonzero;stroke:none;font-family:FreightSans Pro Bold;-inkscape-font-specification:FreightSans Pro"
         id="path6146" />
    </g>
    <g
       style="font-size:6.76214981px"
       id="text5370">
      <path
         d="m 66.736263,30.7077 c 0.518427,0.495967 0.777644,1.172211 0.77765,2.028734 -6e-6,0.856529 -0.270458,1.538391 -0.811356,2.045588 -0.540909,0.507198 -1.217096,0.760797 -2.028563,0.760797 -0.811473,0 -1.478316,-0.24609 -2.000531,-0.738269 -0.522218,-0.492178 -0.783326,-1.170314 -0.783325,-2.034409 -10e-7,-0.864091 0.270508,-1.547844 0.811528,-2.051263 0.541017,-0.50341 1.22093,-0.755117 2.03974,-0.755122 0.811467,5e-6 1.476419,0.247986 1.994857,0.743944 z m -0.946525,2.039912 c -4e-6,-0.450788 -0.09579,-0.807684 -0.287363,-1.070687 -0.191578,-0.262996 -0.460196,-0.394496 -0.805853,-0.3945 -0.345663,4e-6 -0.612389,0.131504 -0.800178,0.3945 -0.187794,0.263003 -0.28169,0.623682 -0.281687,1.082037 -3e-6,0.450794 0.09389,0.805798 0.281687,1.065013 0.187789,0.259218 0.458241,0.388826 0.811356,0.388825 0.353109,10e-7 0.621727,-0.129607 0.805853,-0.388825 0.184119,-0.259215 0.276181,-0.618002 0.276185,-1.076363 z"
         style="font-size:11.27025032px;font-variant:normal;font-weight:normal;writing-mode:lr-tb;fill:#333333;fill-opacity:1;fill-rule:nonzero;stroke:none;font-family:FreightSans Pro Bold;-inkscape-font-specification:FreightSans Pro"
         id="path6149" />
    </g>
    <g
       style="font-size:6.76214981px"
       id="text5374">
      <path
         d="m 76.045718,35.3509 c -0.420758,0.127946 -0.845295,0.191919 -1.273613,0.191919 -0.668623,0 -1.164528,-0.150302 -1.487716,-0.450906 -0.32319,-0.300604 -0.469652,-0.785216 -0.439384,-1.453838 l 0.07876,-1.994856 -0.789,-0.135169 0.03371,-1.104738 0.789,-0.258987 0.0227,-1.19485 1.679118,0 -0.01135,1.250912 1.307319,0 -0.03371,1.363725 -1.397431,0 -0.05641,1.882388 c -0.02247,0.45836 0.206706,0.687539 0.687538,0.687538 0.187788,1e-6 0.416967,-0.04517 0.687537,-0.135513 z"
         style="font-size:11.27025032px;font-variant:normal;font-weight:normal;writing-mode:lr-tb;fill:#333333;fill-opacity:1;fill-rule:nonzero;stroke:none;font-family:FreightSans Pro Bold;-inkscape-font-specification:FreightSans Pro"
         id="path6152" />
    </g>
    <g
       style="font-size:6.76214981px"
       id="text5378">
      <path
         d="m 85.444877,30.7077 c 0.518428,0.495967 0.777644,1.172211 0.77765,2.028734 -6e-6,0.856529 -0.270458,1.538391 -0.811356,2.045588 -0.540909,0.507198 -1.217096,0.760797 -2.028563,0.760797 -0.811473,0 -1.478316,-0.24609 -2.000531,-0.738269 -0.522217,-0.492178 -0.783325,-1.170314 -0.783325,-2.034409 0,-0.864091 0.270509,-1.547844 0.811528,-2.051263 0.541017,-0.50341 1.22093,-0.755117 2.039741,-0.755122 0.811467,5e-6 1.476418,0.247986 1.994856,0.743944 z m -0.946525,2.039912 c -4e-6,-0.450788 -0.09579,-0.807684 -0.287362,-1.070687 -0.191579,-0.262996 -0.460197,-0.394496 -0.805853,-0.3945 -0.345664,4e-6 -0.61239,0.131504 -0.800179,0.3945 -0.187793,0.263003 -0.281689,0.623682 -0.281687,1.082037 -2e-6,0.450794 0.09389,0.805798 0.281687,1.065013 0.187789,0.259218 0.458241,0.388826 0.811357,0.388825 0.353109,10e-7 0.621726,-0.129607 0.805853,-0.388825 0.184119,-0.259215 0.27618,-0.618002 0.276184,-1.076363 z"
         style="font-size:11.27025032px;font-variant:normal;font-weight:normal;writing-mode:lr-tb;fill:#333333;fill-opacity:1;fill-rule:nonzero;stroke:none;font-family:FreightSans Pro Bold;-inkscape-font-specification:FreightSans Pro"
         id="path6155" />
    </g>
    <g
       style="font-size:6.76214981px"
       id="text5382">
      <path
         d="m 92.748129,32.003669 c -2e-6,0.285703 0.06947,0.511156 0.208428,0.676359 0.13895,0.165209 0.343709,0.247812 0.614279,0.247809 0.510863,3e-6 0.766296,-0.323072 0.7663,-0.969225 -4e-6,-0.285467 -0.06759,-0.510862 -0.202753,-0.676187 -0.135172,-0.165317 -0.334257,-0.247977 -0.597254,-0.247981 -0.248098,4e-6 -0.441622,0.08828 -0.580572,0.264834 -0.138954,0.17656 -0.20843,0.411357 -0.208428,0.704391 z m -0.07876,3.91095 c -0.278135,0.135282 -0.417202,0.326857 -0.4172,0.574725 -2e-6,0.202924 0.120205,0.368244 0.360622,0.495962 0.240412,0.127715 0.559761,0.191574 0.958047,0.191575 0.435884,-1e-6 0.792779,-0.06386 1.070687,-0.191575 0.2779,-0.127718 0.416852,-0.300605 0.416856,-0.518662 -4e-6,-0.202697 -0.105192,-0.339757 -0.315565,-0.411181 -0.210381,-0.07143 -0.555984,-0.107139 -1.03681,-0.107138 -0.307944,-10e-7 -0.653489,-0.01124 -1.036637,-0.03371 z M 91.981829,35.723044 C 91.726395,35.647835 91.5104,35.527571 91.333845,35.36225 91.157288,35.196929 91.06901,35.001571 91.069011,34.776175 c -10e-7,-0.247866 0.101404,-0.480771 0.304215,-0.698716 0.20281,-0.217942 0.461969,-0.37197 0.777478,-0.462084 -0.323076,-0.150186 -0.580401,-0.368072 -0.771975,-0.653659 -0.191575,-0.285583 -0.287363,-0.608601 -0.287362,-0.969054 -1e-6,-0.586071 0.225395,-1.07074 0.676187,-1.454009 0.45079,-0.383259 1.055667,-0.574892 1.814632,-0.574897 0.525996,5e-6 1.059448,0.124053 1.600356,0.372144 l 1.476194,-0.124163 0.07911,1.408782 -1.014281,-0.157525 c 0.09767,0.112587 0.146513,0.304162 0.146518,0.574725 -5e-6,0.53334 -0.216057,0.98224 -0.648156,1.3467 -0.432108,0.364464 -0.98247,0.546695 -1.651087,0.546694 -0.165324,10e-7 -0.398286,-0.02637 -0.698888,-0.07911 -0.202698,0.112814 -0.304045,0.240531 -0.304044,0.38315 -10e-7,0.218059 0.31929,0.327089 0.957875,0.327088 l 0,0 0.01135,0 0.01101,0 0.01135,0 0.01135,0 0.01135,0 0.01135,0 0.01101,0 0.01135,0 0.01135,0 0.02236,0 0.01135,0 0.01135,0 0.01135,0 0.01101,0 0.0227,0 0.01135,0 0.01135,0 0.02236,0 0.01135,0 0.02236,0 0.01135,0 0.0227,0 0.01101,0 0.0227,0 0.0227,0 0.01101,0 0.0227,0 0.02236,0 0.0227,0 0.02236,0 0.01135,0 0.0227,0 0.02236,0 0.101463,0 c 1.61537,10e-7 2.423056,0.492065 2.423062,1.476193 -6e-6,0.631245 -0.324972,1.147844 -0.9749,1.549797 -0.649937,0.40195 -1.418128,0.602926 -2.304575,0.602929 -0.743831,-3e-6 -1.356217,-0.116484 -1.837159,-0.349444 -0.480944,-0.232965 -0.721416,-0.571058 -0.721416,-1.014281 0,-0.270568 0.108972,-0.51104 0.326916,-0.721416 0.217943,-0.210378 0.526056,-0.338037 0.92434,-0.382978 z"
         style="font-size:11.27025032px;font-variant:normal;font-weight:normal;writing-mode:lr-tb;fill:#333333;fill-opacity:1;fill-rule:nonzero;stroke:none;font-family:FreightSans Pro Bold;-inkscape-font-specification:FreightSans Pro"
         id="path6158" />
    </g>
    <g
       style="font-size:6.76214981px"
       id="text5386">
      <path
         d="m 102.89144,32.319406 0,3.054194 -1.73587,0 0,-5.150513 1.73587,-0.214275 0,0.766644 c 0.30794,-0.541128 0.72869,-0.811695 1.26226,-0.8117 0.30037,5e-6 0.58963,0.07143 0.86776,0.214275 l -0.34944,1.5326 c -0.21049,-0.105013 -0.42844,-0.157521 -0.65383,-0.157525 -0.45836,4e-6 -0.83394,0.255437 -1.12675,0.7663 z"
         style="font-size:11.27025032px;font-variant:normal;font-weight:normal;writing-mode:lr-tb;fill:#333333;fill-opacity:1;fill-rule:nonzero;stroke:none;font-family:FreightSans Pro Bold;-inkscape-font-specification:FreightSans Pro"
         id="path6161" />
    </g>
    <g
       style="font-size:6.76214981px"
       id="text5390">
      <path
         d="m 112.4934,34.043581 0,-1.002931 c -0.54091,0.06008 -0.92033,0.148355 -1.13827,0.264834 -0.21795,0.116484 -0.32692,0.291205 -0.32692,0.524166 0,0.165322 0.0601,0.300548 0.1804,0.405678 0.12026,0.105132 0.27807,0.157698 0.47343,0.157697 0.33064,10e-7 0.60109,-0.11648 0.81136,-0.349444 z m 0.0451,0.698888 -0.0337,0 c -0.4508,0.533567 -0.95421,0.80035 -1.51025,0.80035 -0.45079,0 -0.83021,-0.140901 -1.13827,-0.422703 -0.30806,-0.281802 -0.46208,-0.625628 -0.46208,-1.031479 0,-1.179485 1.03308,-1.799265 3.09925,-1.859343 l 0,-0.101463 c -10e-6,-0.27813 -0.0733,-0.481055 -0.21978,-0.608775 -0.14652,-0.127713 -0.38132,-0.191571 -0.70439,-0.191575 -0.48083,4e-6 -1.07436,0.17656 -1.78058,0.529669 l -0.3608,-1.273269 c 0.78144,-0.413411 1.58545,-0.62012 2.41206,-0.620125 0.87154,5e-6 1.49138,0.189746 1.85952,0.569222 0.36812,0.379486 0.54473,0.952376 0.52984,1.718672 l -0.0113,1.5553 c -1e-5,0.172889 0.0244,0.283752 0.0733,0.332591 0.0488,0.04884 0.16715,0.08071 0.35494,0.09562 l -0.16922,1.239907 c -1.03687,0.135283 -1.68302,-0.108915 -1.93845,-0.732594 z"
         style="font-size:11.27025032px;font-variant:normal;font-weight:normal;writing-mode:lr-tb;fill:#333333;fill-opacity:1;fill-rule:nonzero;stroke:none;font-family:FreightSans Pro Bold;-inkscape-font-specification:FreightSans Pro"
         id="path6164" />
    </g>
    <g
       style="font-size:6.76214981px"
       id="text5394">
      <path
         d="m 120.86745,30.673994 c 0.45813,-0.473487 0.94641,-0.710233 1.46485,-0.710238 0.65371,5e-6 1.19094,0.247986 1.6117,0.743944 0.42075,0.495967 0.63113,1.157135 0.63113,1.983506 0,0.84151 -0.25544,1.525264 -0.7663,2.051263 -0.51087,0.526 -1.13076,0.789 -1.85968,0.789 -0.36069,0 -0.72125,-0.05641 -1.0817,-0.169219 l 0,2.3443 -1.73587,0 0,-7.483463 1.73587,-0.214275 z m 0,1.036637 0,0 0,0 0,0 0,0.01135 0,0 0,0 0,0.01135 0,0 0,0.01135 0,0.01101 0,0 0,0.01135 0,0.01135 0,0.01135 0,0.01135 0,0.01101 0,0.01135 0,0.01135 0,0.01135 0,0.01101 0,0.01135 0,0.01135 0,0.01135 0,0.01101 0,0.01135 0,0.01135 0,0.01135 0,0.01135 0,0.01101 0,0.01135 0,0.01135 0,0.01135 0,0.01101 0,0.01135 0,0.01135 0,0.01135 0,0.01101 0,0.01135 0,0.01135 0,0.01135 0,0.01135 0,0.01101 0,0.01135 0,0.01135 0,0.01135 0,0.01101 0,0.01135 0,0.0227 0,0.01101 0,0.01135 0,0.01135 0,0.01135 0,0.01101 0,0.01135 0,0.01135 0,0.0227 0,0.01101 0,0.01135 0,0.01135 0,0.01135 0,0.02236 0,0.01135 0,0.01135 0,0.01101 0,0.0227 0,0.01135 0,0.01135 0,0.01101 0,0.0227 0,0.01135 0,0.01101 0,0.0227 0,0.01135 0,0.01101 0,0.0227 0,0.01135 0,0.01135 0,0.02236 0,0.01135 0,0.02236 0,0.01135 0,0.01135 0,0.02236 0,0.01135 0,0.0227 0,0.01135 0,0.01101 0,0.0227 0,0.01135 0,0.02236 0,0.01135 0,0.02236 0,0.01135 0,0.0227 0,0.01135 0,0.02236 0,0.01135 0,0.02236 0,0.01135 0,0.0227 0,0.01101 0,0.0227 0,0.01135 0,0.02236 0,0.0227 0,0.01135 0,0.02236 0,0.01135 0,0.02236 0,0.01135 0,0.0227 0,0.02236 0,0.01135 0,0.0227 0,0.02236 0,0.01135 0,0.02236 0,0.0227 0,0.01135 0,0.02236 0,0.0227 0,0.01135 0,0.02236 0,0.0227 0,0.01101 0,0.0227 0,0.02236 0,0.01135 0,0.0227 0,0.02236 0,0.0227 0,0.01135 0,0.02236 0,0.0227 0,0.02236 0,0.01135 0,0.02236 0,0.0227 0,0.0227 0,0.01101 0,0.0227 0,0.02236 0,0.0227 0,0.02236 0,0.01135 0,0.0227 0,0.02236 0,0.0227 0,0.02236 0,0.0227 0,0.101463 c 0.21783,0.142622 0.4845,0.213932 0.80001,0.213931 0.36824,10e-7 0.65566,-0.131441 0.86226,-0.394328 0.20659,-0.262884 0.30988,-0.616053 0.30989,-1.059509 -10e-6,-0.450789 -0.0939,-0.802009 -0.28169,-1.053663 -0.18779,-0.251646 -0.45836,-0.377471 -0.8117,-0.377475 -0.32308,4e-6 -0.616,0.120154 -0.87877,0.36045 z"
         style="font-size:11.27025032px;font-variant:normal;font-weight:normal;writing-mode:lr-tb;fill:#333333;fill-opacity:1;fill-rule:nonzero;stroke:none;font-family:FreightSans Pro Bold;-inkscape-font-specification:FreightSans Pro"
         id="path6167" />
    </g>
    <g
       style="font-size:6.76214981px"
       id="text5398">
      <path
         d="m 134.60576,35.3736 -1.73553,0 0,-3.09925 c 0,-0.556034 -0.24042,-0.834052 -0.72124,-0.834056 -0.35335,4e-6 -0.67642,0.131503 -0.96923,0.3945 l 0,3.538806 -1.73587,0 0,-7.449757 1.73587,-0.213931 0,3.144307 c 0.51843,-0.593637 1.10818,-0.890458 1.76923,-0.890463 0.51843,5e-6 0.92417,0.161543 1.21721,0.484613 0.29303,0.323079 0.43955,0.762635 0.43956,1.318668 z"
         style="font-size:11.27025032px;font-variant:normal;font-weight:normal;writing-mode:lr-tb;fill:#333333;fill-opacity:1;fill-rule:nonzero;stroke:none;font-family:FreightSans Pro Bold;-inkscape-font-specification:FreightSans Pro"
         id="path6170" />
    </g>
    <g
       style="font-size:6.76214981px"
       id="text5402">
      <path
         d="m 144.79393,30.132975 -1.89339,4.992644 -0.25899,0.687537 c -0.263,0.743828 -0.56923,1.262261 -0.91867,1.5553 -0.34944,0.293036 -0.80964,0.439554 -1.38058,0.439557 -0.54847,-3e-6 -1.0669,-0.112701 -1.5553,-0.338094 l 0.51832,-1.318669 c 0.36068,0.157753 0.63113,0.23663 0.81136,0.236631 0.18802,-10e-7 0.3346,-0.04506 0.43973,-0.135168 0.10513,-0.09011 0.20653,-0.259218 0.30421,-0.507313 l 0.14652,-0.405506 -2.05126,-5.206919 1.85969,0 1.11574,3.448694 1.01428,-3.448694 z"
         style="font-size:11.27025032px;font-variant:normal;font-weight:normal;writing-mode:lr-tb;fill:#333333;fill-opacity:1;fill-rule:nonzero;stroke:none;font-family:FreightSans Pro Bold;-inkscape-font-specification:FreightSans Pro"
         id="path6173" />
    </g>
  </g>
</svg>
