<?xml version="1.0" encoding="UTF-8" standalone="no"?>
<!-- Created with Inkscape (http://www.inkscape.org/) -->

<svg
   xmlns:dc="http://purl.org/dc/elements/1.1/"
   xmlns:cc="http://creativecommons.org/ns#"
   xmlns:rdf="http://www.w3.org/1999/02/22-rdf-syntax-ns#"
   xmlns:svg="http://www.w3.org/2000/svg"
   xmlns="http://www.w3.org/2000/svg"
   version="1.1"
   width="526.96667"
   height="116.8383"
   id="svg7510">
  <defs
     id="defs7512" />
  <metadata
     id="metadata7515">
    <rdf:RDF>
      <cc:Work
         rdf:about="">
        <dc:format>image/svg+xml</dc:format>
        <dc:type
           rdf:resource="http://purl.org/dc/dcmitype/StillImage" />
        <dc:title></dc:title>
      </cc:Work>
    </rdf:RDF>
  </metadata>
  <g
     transform="translate(-74.879448,-57.005035)"
     id="layer1">
    <g
       id="text7522"
       style="font-size:100px;font-style:normal;font-variant:normal;font-weight:normal;font-stretch:normal;text-align:start;line-height:125%;letter-spacing:0px;word-spacing:0px;writing-mode:lr-tb;text-anchor:start;fill:#000000;fill-opacity:1;stroke:none;font-family:FreightSans Pro Medium;-inkscape-font-specification:'FreightSans Pro Medium,'">
      <path
         d="m 111.76665,92.154083 c 4.71765,1.23669 8.35208,3.324131 10.90333,6.262329 2.55112,2.938258 3.82672,6.457058 3.82678,10.556398 -6e-5,6.41928 -2.22321,11.44613 -6.66944,15.08057 -4.44633,3.63444 -11.19364,5.45166 -20.241939,5.45166 l -24.705933,0 0,-72.500005 24.012085,0 c 8.427607,7.3e-5 14.748937,1.72053 18.963987,5.161377 4.21495,3.440982 6.32245,8.138609 6.32251,14.092896 -6e-5,7.502568 -4.13718,12.800822 -12.41138,15.894775 z m 2.55237,-15.080566 c -5e-5,-3.480983 -1.25676,-6.18793 -3.77014,-8.12085 -2.51347,-1.932799 -6.12902,-2.899228 -10.846678,-2.899292 l -14.963745,0 0,22.734131 13.455688,0 c 5.104695,4.1e-5 9.068355,-1.04368 11.890995,-3.131164 2.82254,-2.087398 4.23383,-4.948336 4.23388,-8.582825 z M 100.51287,120.4567 c 10.74987,0 16.12483,-3.78901 16.12488,-11.36707 -5e-5,-7.57802 -5.87769,-11.367034 -17.632936,-11.367065 l -14.266357,0 0,22.734135 15.774413,0 z"
         id="path8307"
         style="fill:#333333;fill-opacity:1" />
      <path
         d="m 149.16717,94.819733 0,34.685307 -9.51209,0 0,-53.359013 9.51209,-1.508057 0,9.395264 c 3.94358,-6.263458 8.89255,-9.395209 14.84692,-9.395264 3.78781,5.5e-5 7.11308,0.888604 9.97583,2.665649 l -2.43555,8.935059 c -2.70698,-1.626013 -5.52957,-2.439041 -8.46777,-2.439087 -5.33604,4.6e-5 -9.97585,3.673423 -13.91943,11.020142 z"
         id="path8309"
         style="fill:#333333;fill-opacity:1" />
      <path
         d="m 226.52056,76.376129 -21.22607,53.709471 -3.59668,9.51209 c -2.47569,6.57265 -5.14429,11.13517 -8.0058,13.68756 -2.86155,2.55234 -6.41869,3.82852 -10.67145,3.82855 -3.40316,-3e-5 -7.15324,-0.9287 -11.25024,-2.78601 l 2.78247,-8.8147 c 3.40315,1.70156 6.22574,2.55235 8.46777,2.55237 2.08861,-2e-5 3.88695,-0.79299 5.39502,-2.37891 1.50804,-1.58595 3.11286,-4.62094 4.81445,-9.10498 l 3.24622,-8.23767 -20.64551,-51.967771 10.20593,0 15.42749,41.298091 14.96375,-41.298091 z"
         id="path8311"
         style="fill:#333333;fill-opacity:1" />
      <path
         d="m 275.17132,126.83585 c -4.79326,2.94059 -10.63196,4.41088 -17.51612,4.41088 -8.27427,0 -14.69294,-2.57183 -19.25604,-7.71551 -4.56312,-5.14367 -6.84467,-12.00721 -6.84466,-20.59064 -1e-5,-8.429976 2.51342,-15.254574 7.54028,-20.473814 5.02684,-5.219145 11.4461,-7.828741 19.25781,-7.828796 6.57264,5.5e-5 12.29569,1.50811 17.16919,4.52417 l -2.43908,8.697876 c -4.33069,-2.938188 -9.24072,-4.407303 -14.73011,-4.407349 -5.41392,4.6e-5 -9.58999,1.720504 -12.5282,5.161377 -2.93824,3.440956 -4.40736,8.177523 -4.40734,14.209716 -2e-5,6.11013 1.52692,10.90511 4.58081,14.38495 3.05385,3.47987 7.09421,5.21979 12.12109,5.21979 5.87879,0 10.98352,-1.46911 15.31421,-4.40735 z"
         id="path8313"
         style="fill:#333333;fill-opacity:1" />
      <path
         d="m 293.97247,104.10172 0,0.46374 c 0.15574,5.25816 1.83844,9.54986 5.04809,12.87512 3.20961,3.32529 7.36562,4.98792 12.46802,4.98792 6.26347,0 11.56054,-1.46911 15.89123,-4.40735 l 1.7417,8.8147 c -4.79561,2.94059 -10.74995,4.41088 -17.86303,4.41088 -7.96512,0 -14.4422,-2.59071 -19.43128,-7.77215 -4.9891,-5.18143 -7.48365,-11.83256 -7.48364,-19.95343 -1e-5,-8.507861 2.49454,-15.44869 7.48364,-20.822511 4.98908,-5.373727 11.2337,-8.060614 18.73389,-8.060669 6.34135,5.5e-5 11.30979,1.855623 14.90533,5.566711 3.59545,3.711187 5.3932,8.776388 5.39325,15.195618 -5e-5,3.094025 -0.38591,5.916611 -1.15759,8.467771 z m 0.46374,-6.959722 27.26184,-0.233642 0,-0.810669 c -4e-5,-4.099328 -1.00541,-7.30896 -3.01611,-9.628906 -2.01078,-2.319861 -5.02689,-3.479812 -9.04834,-3.479859 -4.25279,4.7e-5 -7.73265,1.411341 -10.43958,4.233887 -2.70696,2.82263 -4.2929,6.129024 -4.75781,9.919189 z"
         id="path8315"
         style="fill:#333333;fill-opacity:1" />
      <path
         d="m 390.42437,129.50504 -45.93555,0 0,-72.500005 45.93555,0 0,9.165162 -36.07654,0 0,22.387207 30.04431,0 0,9.165161 -30.04431,0 0,22.617305 36.07654,0 z"
         id="path8317"
         style="fill:#2298b4;fill-opacity:1" />
      <path
         d="m 446.96587,76.376129 -20.87915,53.245731 -8.81469,0 -20.99598,-53.245731 10.20594,0 15.54431,41.298091 14.84692,-41.298091 z"
         id="path8319"
         style="fill:#2298b4;fill-opacity:1" />
      <path
         d="m 482.74151,117.44058 0,-14.38318 c -7.88724,1.0054 -13.45512,2.41669 -16.70368,4.23389 -3.24859,1.81724 -4.87287,4.34955 -4.87286,7.59692 -10e-6,2.3978 0.85078,4.37019 2.55237,5.91718 1.70156,1.547 3.98252,2.3205 6.84289,2.3205 4.56427,0 8.62469,-1.8951 12.18128,-5.68531 z m 0.34692,6.37915 -0.46374,0 c -4.2528,4.95134 -9.12507,7.427 -14.61682,7.427 -4.94899,0 -9.00883,-1.45023 -12.17951,-4.3507 -3.1707,-2.90047 -4.75604,-6.51603 -4.75604,-10.84668 0,-11.67739 10.55638,-18.01877 31.66919,-19.024173 l 0,-1.508057 c -4e-5,-4.330609 -0.92812,-7.42401 -2.78424,-9.280212 -1.85619,-1.856115 -4.91065,-2.784195 -9.16339,-2.784241 -5.56732,4.6e-5 -11.29038,1.971846 -17.16919,5.915406 l -1.85498,-8.584595 c 5.87645,-4.096953 12.527,-6.145453 19.95166,-6.145508 7.19096,5.5e-5 12.43022,1.643221 15.71777,4.929504 3.28747,3.286383 4.89229,8.525046 4.81445,15.716004 l 0,22.273922 c -4e-5,2.24204 0.29024,3.67221 0.87085,4.29053 0.58052,0.61833 2.03076,0.9275 4.35071,0.92749 l -0.58057,8.00403 c -7.65596,0.62068 -12.25801,-1.69922 -13.80615,-6.95972 z"
         id="path8321"
         style="fill:#2298b4;fill-opacity:1" />
      <path
         d="m 551.78289,129.50504 -9.51208,0 0,-33.407353 c -5e-5,-4.486372 -0.87031,-7.657654 -2.61078,-9.513855 -1.74056,-1.856116 -4.54368,-2.784195 -8.40937,-2.784241 -5.26052,4.6e-5 -9.90033,1.934085 -13.91943,5.802124 l 0,39.903325 -9.51208,0 0,-53.359013 9.51208,-1.508057 0,8.004028 c 5.33364,-5.335966 11.09445,-8.003973 17.28247,-8.004028 5.41386,5.5e-5 9.62886,1.623751 12.64502,4.871094 3.01606,3.247442 4.52412,7.732667 4.52417,13.455688 z"
         id="path8323"
         style="fill:#2298b4;fill-opacity:1" />
      <path
         d="m 601.84612,114.42447 c -4e-5,5.02686 -1.87567,9.10617 -5.62689,12.23791 -3.75129,3.13176 -8.56515,4.69763 -14.44159,4.69764 -7.03761,-1e-5 -13.22441,-1.66264 -18.56042,-4.98792 l 2.43554,-8.69788 c 4.87109,3.32529 10.32274,4.98793 16.35498,4.98792 3.09397,1e-5 5.62687,-0.67673 7.5987,-2.03021 1.97177,-1.35347 2.95767,-3.19016 2.9577,-5.51007 -3e-5,-1.239 -0.3092,-2.34172 -0.92749,-3.30817 -0.61836,-0.96641 -1.6432,-1.79773 -3.07452,-2.49396 -1.43139,-0.69618 -2.6881,-1.23722 -3.77015,-1.62311 -1.08209,-0.38584 -2.66744,-0.85017 -4.75604,-1.393 -4.71771,-1.31451 -8.52619,-3.13173 -11.42547,-5.45166 -2.8993,-2.319875 -4.34895,-5.684089 -4.34894,-10.092652 -10e-6,-4.87105 1.81721,-8.775709 5.45166,-11.713989 3.63442,-2.938179 8.15859,-4.407294 13.57251,-4.407349 6.1856,5.5e-5 11.90747,1.314588 17.16565,3.943603 l -2.43555,8.697876 c -4.79325,-2.629024 -9.85786,-3.943557 -15.19385,-3.943603 -2.86273,4.6e-5 -5.14487,0.580022 -6.84643,1.739929 -1.7016,1.159996 -2.55238,2.784283 -2.55237,4.872864 -10e-6,2.319943 1.02483,4.05987 3.07452,5.219788 2.04967,1.159985 5.12419,2.281587 9.22357,3.364807 4.79319,1.314564 8.67897,3.151256 11.65735,5.510066 2.97832,2.35887 4.46749,5.81926 4.46753,10.38117 z"
         id="path8325"
         style="fill:#2298b4;fill-opacity:1" />
    </g>
    <g
       id="text8300"
       style="font-size:30px;font-style:normal;font-variant:normal;font-weight:normal;font-stretch:normal;text-align:start;line-height:125%;letter-spacing:0px;word-spacing:0px;writing-mode:lr-tb;text-anchor:start;fill:#000000;fill-opacity:1;stroke:none;font-family:FreightSans Pro Medium;-inkscape-font-specification:'FreightSans Pro Medium,'">
      <path
         d="m 225.52448,146.12447 c 1.67992,-1.56798 3.54186,-2.35197 5.58581,-2.35199 2.57628,2e-5 4.65526,0.92393 6.23694,2.77176 1.58165,1.84785 2.37248,4.24192 2.3725,7.18222 -2e-5,2.99585 -0.88891,5.45273 -2.66666,7.37063 -1.77779,1.91791 -4.05266,2.87686 -6.82462,2.87686 -1.70813,0 -3.27613,-0.33581 -4.70397,-1.00744 l 0,10.24749 -2.6045,0 0,-29.10571 2.6045,-0.54602 z m 0,2.18408 0,0 0,0 0,0 0,0 0,0.041 0,0 0,0 0,0.0423 0,0 0,0.0423 0,0 0,0.0423 0,0 0,0.041 0,0.0423 0,0.0423 0,0 0,0.0423 0,0.041 0,0.0423 0,0.0423 0,0.0423 0,0.0423 0,0.041 0,0.0423 0,0.0423 0,0.0423 0,0.041 0,0.0423 0,0.0423 0,0.0423 0,0.041 0,0.0423 0,0.0423 0,0.0423 0,0.041 0,0.0423 0,0.0423 0,0.0423 0,0.0423 0,0.041 0,0.0423 0,0.0423 0,0.0423 0,0.041 0,0.0423 0,0.0423 0,0.0423 0,0.041 0,0.0423 0,0.0423 0,0.0423 0,0.0423 0,0.041 0,0.0423 0,0.0423 0,0.0423 0,0.041 0,0.0423 0,0.0846 0,0.041 0,0.0423 0,0.0423 0,0.0423 0,0.0423 0,0.041 0,0.0423 0,0.0423 0,0.0423 0,0.041 0,0.0846 0,0.0423 0,0.041 0,0.0423 0,0.0423 0,0.0423 0,0.0833 0,0.0423 0,0.0423 0,0.0423 0,0.041 0,0.0846 0,0.0423 0,0.041 0,0.0423 0,0.0423 0,0.0833 0,0.0423 0,0.0423 0,0.0423 0,0.0833 0,0.0423 0,0.0423 0,0.0833 0,0.0423 0,0.0423 0,0.0423 0,0.0833 0,0.0423 0,0.0423 0,0.0833 0,0.0423 0,0.0423 0,0.0833 0,0.0423 0,0.0846 0,0.041 0,0.0423 0,0.0846 0,0.0423 0,0.041 0,0.0846 0,0.0423 0,0.0833 0,0.0423 0,0.0423 0,0.0833 0,0.0423 0,0.0846 0,0.041 0,0.0846 0,0.0423 0,0.0833 0,0.0423 0,0.0833 0,0.0423 0,0.0423 0,0.0846 0,0.041 0,0.0846 0,0.0423 0,0.0833 0,0.0423 0,0.0833 0,0.0846 0,0.0423 0,0.0833 0,0.0423 0,0.0846 0,0.041 0,0.0846 0,0.0423 0,0.0833 0,0.0423 0,0.0833 0,0.0846 0,0.0423 0,0.0833 0,0.0423 0,0.0846 0,0.0833 0,0.0423 0,0.0833 0,0.0423 0,0.0846 0,0.0833 0,0.0423 0,0.0846 0,0.0833 0,0.0423 0,0.0833 0,0.0846 0,0.0423 0,0.0833 0,0.0846 0,0.0423 0,0.0833 0,0.0846 0,0.041 0,0.0846 0,0.0833 0,0.0423 0,0.0846 0,0.0833 0,0.0423 0,0.0846 0,0.0833 0,0.0846 0,0.041 0,0.0846 0,0.0846 0,0.0833 0,0.0423 0,0.0833 0,0.0846 0,0.0833 0,0.0423 0,0.0846 0,0.0833 0,0.0846 0,0.0833 0,0.0423 0,0.0846 0,0.0833 0,0.0846 0,0.0833 0,0.0423 0,0.0846 0,0.0833 0,0.0846 0,0.0833 0,0.0846 0,0.0423 0,0.0833 0,0.0846 0,0.0833 0,0.0846 0,0.0833 0,0.33581 c 1.28771,1.00831 2.89757,1.51246 4.82958,1.51245 2.01659,1e-5 3.63372,-0.73507 4.85138,-2.20523 1.21764,-1.47015 1.82646,-3.35323 1.82648,-5.64926 -2e-5,-2.23961 -0.57402,-4.06651 -1.72201,-5.48071 -1.14803,-1.41417 -2.68804,-2.12126 -4.62003,-2.12128 -1.87562,2e-5 -3.59742,0.71437 -5.1654,2.14307 z"
         id="path8328"
         style="font-size:42px;font-weight:300;letter-spacing:16.30669022;font-family:FreightSans Pro Book;-inkscape-font-specification:'FreightSans Pro Book, Light'" />
      <path
         d="m 276.1715,163.42793 -2.60449,0 0,-12.43158 c -2e-5,-3.24791 -1.37191,-4.87187 -4.11567,-4.87188 -2.15589,1e-5 -4.14386,0.91005 -5.96392,2.7301 l 0,14.57336 -2.6045,0 0,-28.30847 2.6045,-0.54602 0,12.13806 c 2.04393,-2.04392 4.26988,-3.0659 6.67785,-3.06592 1.8756,2e-5 3.34554,0.57403 4.40982,1.72202 1.06425,1.14803 1.59639,2.7722 1.59641,4.87253 z"
         id="path8330"
         style="font-size:42px;font-weight:300;letter-spacing:16.30669022;font-family:FreightSans Pro Book;-inkscape-font-specification:'FreightSans Pro Book, Light'" />
      <path
         d="m 315.90836,153.76747 c -2e-5,3.02406 -0.89616,5.48115 -2.68844,7.37128 -1.79232,1.89014 -4.04646,2.8352 -6.76245,2.8352 -2.71602,0 -4.94197,-0.92392 -6.67786,-2.77176 -1.7359,-1.84783 -2.60385,-4.29787 -2.60385,-7.35012 0,-3.02404 0.90298,-5.48113 2.70895,-7.37128 1.80597,-1.89012 4.06695,-2.83519 6.78296,-2.83521 2.71599,2e-5 4.9351,0.92416 6.65735,2.7724 1.72221,1.84829 2.58332,4.29811 2.58334,7.34949 z m -2.56219,0.0846 c -2e-5,-2.35241 -0.62294,-4.24959 -1.86878,-5.69156 -1.24586,-1.44194 -2.89076,-2.16292 -4.93469,-2.16294 -2.01661,2e-5 -3.64783,0.721 -4.89368,2.16294 -1.24585,1.44197 -1.86877,3.31095 -1.86877,5.60696 0,2.35243 0.62292,4.24961 1.86877,5.69156 1.24585,1.44196 2.89074,2.16294 4.9347,2.16293 2.01659,1e-5 3.64781,-0.72097 4.89367,-2.16293 1.24584,-1.44195 1.86876,-3.31094 1.86878,-5.60696 z"
         id="path8332"
         style="font-size:42px;font-weight:300;letter-spacing:16.30669022;font-family:FreightSans Pro Book;-inkscape-font-specification:'FreightSans Pro Book, Light'" />
      <path
         d="m 346.63077,163.04982 c -1.42787,0.67249 -2.85572,1.00873 -4.28357,1.00873 -3.58375,0 -5.30555,-2.01617 -5.16541,-6.04852 l 0.29352,-11.38184 -2.94031,-0.16791 0.1269,-1.63806 2.89801,-0.67291 0.12561,-4.36689 2.4776,0 -0.12561,4.49378 6.42535,0 -0.12561,2.30969 -6.38434,0 -0.29352,11.50745 c -0.0837,2.40881 0.85406,3.61322 2.81342,3.61322 1.03649,0 2.26866,-0.30804 3.69653,-0.92414 z"
         id="path8334"
         style="font-size:42px;font-weight:300;letter-spacing:16.30669022;font-family:FreightSans Pro Book;-inkscape-font-specification:'FreightSans Pro Book, Light'" />
      <path
         d="m 384.61549,153.76747 c -2e-5,3.02406 -0.89616,5.48115 -2.68844,7.37128 -1.79232,1.89014 -4.04646,2.8352 -6.76245,2.8352 -2.71602,0 -4.94197,-0.92392 -6.67786,-2.77176 -1.7359,-1.84783 -2.60385,-4.29787 -2.60385,-7.35012 0,-3.02404 0.90298,-5.48113 2.70895,-7.37128 1.80597,-1.89012 4.06695,-2.83519 6.78296,-2.83521 2.71599,2e-5 4.93511,0.92416 6.65735,2.7724 1.72221,1.84829 2.58332,4.29811 2.58334,7.34949 z m -2.56219,0.0846 c -2e-5,-2.35241 -0.62294,-4.24959 -1.86878,-5.69156 -1.24586,-1.44194 -2.89076,-2.16292 -4.93469,-2.16294 -2.01661,2e-5 -3.64783,0.721 -4.89367,2.16294 -1.24586,1.44197 -1.86878,3.31095 -1.86878,5.60696 0,2.35243 0.62292,4.24961 1.86878,5.69156 1.24584,1.44196 2.89073,2.16294 4.93469,2.16293 2.01659,1e-5 3.64781,-0.72097 4.89367,-2.16293 1.24584,-1.44195 1.86876,-3.31094 1.86878,-5.60696 z"
         id="path8336"
         style="font-size:42px;font-weight:300;letter-spacing:16.30669022;font-family:FreightSans Pro Book;-inkscape-font-specification:'FreightSans Pro Book, Light'" />
      <path
         d="m 407.23218,150.91176 c -1e-5,1.42787 0.44796,2.60386 1.3439,3.52798 0.89593,0.92414 2.10012,1.38621 3.61258,1.3862 1.45604,1e-5 2.61794,-0.46889 3.48569,-1.4067 0.86772,-0.9378 1.30159,-2.14883 1.3016,-3.63309 -1e-5,-1.48424 -0.42683,-2.68843 -1.28045,-3.61258 -0.85365,-0.92412 -2.0649,-1.38618 -3.63373,-1.3862 -1.48341,2e-5 -2.65919,0.47618 -3.52735,1.4285 -0.86817,0.95234 -1.30225,2.18431 -1.30224,3.69589 z m 2.26867,13.06219 c -1.14844,0.30762 -2.08667,0.81156 -2.81469,1.51181 -0.72803,0.70026 -1.09205,1.45627 -1.09204,2.26804 -10e-6,1.14843 0.59515,2.0935 1.78546,2.8352 1.1903,0.7417 2.77923,1.11255 4.76678,1.11255 2.01574,0 3.72365,-0.43387 5.12375,-1.3016 1.40007,-0.86774 2.10011,-1.9459 2.10013,-3.23447 -2e-5,-1.09204 -0.47597,-1.87604 -1.42786,-2.35199 -0.95192,-0.47595 -2.42207,-0.71393 -4.41046,-0.71393 -1.59534,0 -2.93903,-0.0419 -4.03107,-0.12561 z m -2.26867,-0.50372 c -1.73548,-0.61609 -2.60321,-1.63806 -2.60321,-3.06592 0,-0.78442 0.29394,-1.50561 0.88183,-2.16357 0.58789,-0.65796 1.34369,-1.15484 2.2674,-1.49066 -2.07215,-1.26037 -3.10822,-3.22057 -3.10822,-5.88062 0,-2.07127 0.70004,-3.79307 2.10013,-5.1654 1.40008,-1.3723 3.22036,-2.05846 5.46085,-2.05848 1.67992,2e-5 3.19194,0.37814 4.53607,1.13434 l 5.33331,-0.42041 0.12561,2.60449 -4.24127,-0.42041 c 0.44774,0.44863 0.81859,1.08587 1.11255,1.91172 0.29393,0.82588 0.4409,1.6306 0.44092,2.41415 -2e-5,2.04396 -0.7069,3.73094 -2.12064,5.06094 -1.41377,1.33003 -3.19902,1.99504 -5.35574,1.99503 -0.86732,1e-5 -1.81922,-0.182 -2.85572,-0.54602 -1.42786,0.58875 -2.14178,1.35907 -2.14178,2.31097 0,0.64344 0.32193,1.13328 0.96579,1.46952 0.64385,0.33624 1.77798,0.50436 3.40237,0.50436 l 0,0 0.0423,0 0.0423,0 0.041,0 0.0423,0 0.0423,0 0.0423,0 0.041,0 0.0423,0 0.0423,0 0.0423,0 0.0833,0 0.0423,0 0.0423,0 0.041,0 0.0846,0 0.0423,0 0.0423,0 0.0833,0 0.0423,0 0.0833,0 0.0423,0 0.0846,0 0.0833,0 0.0423,0 0.0846,0 0.0833,0 0.0423,0 0.0833,0 0.0846,0 0.0833,0 0.0846,0 0.0846,0 0.0833,0 0.0846,0 0.41912,0 c 5.32006,0 7.98009,1.67993 7.98011,5.0398 -2e-5,2.07213 -0.99401,3.78005 -2.98197,5.12374 -1.98799,1.34368 -4.36796,2.01553 -7.13992,2.01554 -2.5763,-1e-5 -4.66938,-0.51783 -6.27924,-1.55347 -1.60986,-1.03565 -2.41479,-2.39344 -2.41479,-4.07336 0,-1.09205 0.38495,-2.0792 1.15484,-2.96146 0.7699,-0.88226 1.77094,-1.4772 3.00312,-1.78482 z"
         id="path8338"
         style="font-size:42px;font-weight:300;letter-spacing:16.30669022;font-family:FreightSans Pro Book;-inkscape-font-specification:'FreightSans Pro Book, Light'" />
      <path
         d="m 444.36072,151.07967 0,12.34826 -2.60449,0 0,-19.23633 2.60449,-0.54602 0,4.11695 c 1.39965,-2.74461 3.28978,-4.11693 5.67041,-4.11695 1.20396,2e-5 2.32378,0.29397 3.35943,0.88184 l -0.67163,2.43658 c -0.92457,-0.55967 -1.90467,-0.83952 -2.9403,-0.83953 -2.1559,1e-5 -3.96186,1.65174 -5.41791,4.9552 z"
         id="path8340"
         style="font-size:42px;font-weight:300;letter-spacing:16.30669022;font-family:FreightSans Pro Book;-inkscape-font-specification:'FreightSans Pro Book, Light'" />
      <path
         d="m 483.03117,159.18538 0,-5.62683 c -3.21973,0.36402 -5.51575,0.92393 -6.88806,1.67972 -1.37232,0.7558 -2.05847,1.79166 -2.05847,3.10757 0,1.00831 0.37106,1.8205 1.11319,2.43658 0.74212,0.6161 1.68697,0.92414 2.83456,0.92414 1.84826,0 3.51452,-0.84039 4.99878,-2.52118 z m 0.16791,1.93286 -0.12561,0 c -1.54066,1.90381 -3.4167,2.85571 -5.62811,2.85571 -1.76453,0 -3.2208,-0.50393 -4.36881,-1.51181 -1.14801,-1.00787 -1.72201,-2.28213 -1.72201,-3.82278 0,-4.11523 3.8922,-6.39715 11.67663,-6.84577 l 0,-1.13305 c -10e-6,-3.05223 -1.51203,-4.57835 -4.53607,-4.57837 -1.00831,2e-5 -2.0933,0.22389 -3.25497,0.67163 -1.16169,0.44777 -2.17661,0.99379 -3.04477,1.63806 l -0.58832,-2.4353 c 0.9237,-0.64427 2.04351,-1.1905 3.35944,-1.6387 1.31591,-0.44817 2.57628,-0.67226 3.78112,-0.67228 4.61938,2e-5 6.91497,2.29604 6.88678,6.88807 l 0,9.24005 c -1e-5,0.75623 0.12603,1.27426 0.37812,1.5541 0.25206,0.27985 0.7703,0.4061 1.55475,0.37876 l -0.16791,2.14178 c -2.49257,0.16748 -3.89265,-0.74255 -4.20026,-2.7301 z"
         id="path8342"
         style="font-size:42px;font-weight:300;letter-spacing:16.30669022;font-family:FreightSans Pro Book;-inkscape-font-specification:'FreightSans Pro Book, Light'" />
      <path
         d="m 510.36081,146.12447 c 1.67992,-1.56798 3.54186,-2.35197 5.58581,-2.35199 2.57628,2e-5 4.65526,0.92393 6.23694,2.77176 1.58165,1.84785 2.37248,4.24192 2.3725,7.18222 -2e-5,2.99585 -0.8889,5.45273 -2.66666,7.37063 -1.77778,1.91791 -4.05265,2.87686 -6.82461,2.87686 -1.70814,0 -3.27613,-0.33581 -4.70398,-1.00744 l 0,10.24749 -2.60449,0 0,-29.10571 2.60449,-0.54602 z m 0,2.18408 0,0 0,0 0,0 0,0 0,0.041 0,0 0,0 0,0.0423 0,0 0,0.0423 0,0 0,0.0423 0,0 0,0.041 0,0.0423 0,0.0423 0,0 0,0.0423 0,0.041 0,0.0423 0,0.0423 0,0.0423 0,0.0423 0,0.041 0,0.0423 0,0.0423 0,0.0423 0,0.041 0,0.0423 0,0.0423 0,0.0423 0,0.041 0,0.0423 0,0.0423 0,0.0423 0,0.041 0,0.0423 0,0.0423 0,0.0423 0,0.0423 0,0.041 0,0.0423 0,0.0423 0,0.0423 0,0.041 0,0.0423 0,0.0423 0,0.0423 0,0.041 0,0.0423 0,0.0423 0,0.0423 0,0.0423 0,0.041 0,0.0423 0,0.0423 0,0.0423 0,0.041 0,0.0423 0,0.0846 0,0.041 0,0.0423 0,0.0423 0,0.0423 0,0.0423 0,0.041 0,0.0423 0,0.0423 0,0.0423 0,0.041 0,0.0846 0,0.0423 0,0.041 0,0.0423 0,0.0423 0,0.0423 0,0.0833 0,0.0423 0,0.0423 0,0.0423 0,0.041 0,0.0846 0,0.0423 0,0.041 0,0.0423 0,0.0423 0,0.0833 0,0.0423 0,0.0423 0,0.0423 0,0.0833 0,0.0423 0,0.0423 0,0.0833 0,0.0423 0,0.0423 0,0.0423 0,0.0833 0,0.0423 0,0.0423 0,0.0833 0,0.0423 0,0.0423 0,0.0833 0,0.0423 0,0.0846 0,0.041 0,0.0423 0,0.0846 0,0.0423 0,0.041 0,0.0846 0,0.0423 0,0.0833 0,0.0423 0,0.0423 0,0.0833 0,0.0423 0,0.0846 0,0.041 0,0.0846 0,0.0423 0,0.0833 0,0.0423 0,0.0833 0,0.0423 0,0.0423 0,0.0846 0,0.041 0,0.0846 0,0.0423 0,0.0833 0,0.0423 0,0.0833 0,0.0846 0,0.0423 0,0.0833 0,0.0423 0,0.0846 0,0.041 0,0.0846 0,0.0423 0,0.0833 0,0.0423 0,0.0833 0,0.0846 0,0.0423 0,0.0833 0,0.0423 0,0.0846 0,0.0833 0,0.0423 0,0.0833 0,0.0423 0,0.0846 0,0.0833 0,0.0423 0,0.0846 0,0.0833 0,0.0423 0,0.0833 0,0.0846 0,0.0423 0,0.0833 0,0.0846 0,0.0423 0,0.0833 0,0.0846 0,0.041 0,0.0846 0,0.0833 0,0.0423 0,0.0846 0,0.0833 0,0.0423 0,0.0846 0,0.0833 0,0.0846 0,0.041 0,0.0846 0,0.0846 0,0.0833 0,0.0423 0,0.0833 0,0.0846 0,0.0833 0,0.0423 0,0.0846 0,0.0833 0,0.0846 0,0.0833 0,0.0423 0,0.0846 0,0.0833 0,0.0846 0,0.0833 0,0.0423 0,0.0846 0,0.0833 0,0.0846 0,0.0833 0,0.0846 0,0.0423 0,0.0833 0,0.0846 0,0.0833 0,0.0846 0,0.0833 0,0.33581 c 1.28771,1.00831 2.89757,1.51246 4.82959,1.51245 2.01659,1e-5 3.63371,-0.73507 4.85138,-2.20523 1.21763,-1.47015 1.82646,-3.35323 1.82648,-5.64926 -2e-5,-2.23961 -0.57403,-4.06651 -1.72202,-5.48071 -1.14802,-1.41417 -2.68803,-2.12126 -4.62003,-2.12128 -1.87561,2e-5 -3.59741,0.71437 -5.1654,2.14307 z"
         id="path8344"
         style="font-size:42px;font-weight:300;letter-spacing:16.30669022;font-family:FreightSans Pro Book;-inkscape-font-specification:'FreightSans Pro Book, Light'" />
      <path
         d="m 561.00784,163.42793 -2.60449,0 0,-12.43158 c -1e-5,-3.24791 -1.3719,-4.87187 -4.11566,-4.87188 -2.15589,1e-5 -4.14387,0.91005 -5.96393,2.7301 l 0,14.57336 -2.60449,0 0,-28.30847 2.60449,-0.54602 0,12.13806 c 2.04394,-2.04392 4.26989,-3.0659 6.67786,-3.06592 1.87559,2e-5 3.34553,0.57403 4.40982,1.72202 1.06425,1.14803 1.59638,2.7722 1.5964,4.87253 z"
         id="path8346"
         style="font-size:42px;font-weight:300;letter-spacing:16.30669022;font-family:FreightSans Pro Book;-inkscape-font-specification:'FreightSans Pro Book, Light'" />
      <path
         d="m 597.88898,144.1916 -7.47638,19.02613 -1.55475,4.15796 c -0.83997,2.26781 -1.74296,3.84285 -2.70895,4.72512 -0.96601,0.88226 -2.13474,1.32339 -3.5062,1.3234 -1.12024,-10e-6 -2.36652,-0.29396 -3.73883,-0.88184 l 0.79852,-2.39428 c 1.03565,0.55968 2.01575,0.83953 2.94031,0.83954 0.78357,-1e-5 1.47635,-0.30806 2.07834,-0.92414 0.60198,-0.61609 1.22512,-1.79187 1.86941,-3.52734 l 1.30225,-3.40174 -7.51868,-18.94281 2.8147,0 6.04724,15.8769 5.92291,-15.8769 z"
         id="path8348"
         style="font-size:42px;font-weight:300;letter-spacing:16.30669022;font-family:FreightSans Pro Book;-inkscape-font-specification:'FreightSans Pro Book, Light'" />
    </g>
  </g>
</svg>
