<?xml version="1.0" encoding="UTF-8" standalone="no"?>
<!-- Created with Inkscape (http://www.inkscape.org/) -->

<svg
   xmlns:dc="http://purl.org/dc/elements/1.1/"
   xmlns:cc="http://creativecommons.org/ns#"
   xmlns:rdf="http://www.w3.org/1999/02/22-rdf-syntax-ns#"
   xmlns:svg="http://www.w3.org/2000/svg"
   xmlns="http://www.w3.org/2000/svg"
   xmlns:sodipodi="http://sodipodi.sourceforge.net/DTD/sodipodi-0.dtd"
   xmlns:inkscape="http://www.inkscape.org/namespaces/inkscape"
   width="156"
   height="45"
   id="svg2"
   version="1.1"
   inkscape:version="0.48.4 r9939"
   sodipodi:docname="logo-bold-path-padded.svg">
  <defs
     id="defs4">
    <clipPath
       id="clipPath4974"
       clipPathUnits="userSpaceOnUse">
      <path
         id="path4976"
         d="m 58,58 1108,0 0,1467 -1108,0 0,-1467 z"
         inkscape:connector-curvature="0" />
    </clipPath>
    <clipPath
       id="clipPath4952"
       clipPathUnits="userSpaceOnUse">
      <path
         id="path4954"
         d="M 0,0 400,0 400,210 0,210 0,0 z"
         inkscape:connector-curvature="0" />
    </clipPath>
    <clipPath
       id="clipPath4948"
       clipPathUnits="userSpaceOnUse">
      <path
         id="path4950"
         d="M 0,0 400,0 400,210 0,210 0,0 z"
         inkscape:connector-curvature="0" />
    </clipPath>
    <clipPath
       id="clipPath4940"
       clipPathUnits="userSpaceOnUse">
      <path
         id="path4942"
         d="m 343,965 400,0 0,210 -400,0 0,-210 z"
         inkscape:connector-curvature="0" />
    </clipPath>
    <clipPath
       id="clipPath4918"
       clipPathUnits="userSpaceOnUse">
      <path
         id="path4920"
         d="M 0,0 400,0 400,271 0,271 0,0 z"
         inkscape:connector-curvature="0" />
    </clipPath>
    <clipPath
       id="clipPath4914"
       clipPathUnits="userSpaceOnUse">
      <path
         id="path4916"
         d="M 0,0 400,0 400,271 0,271 0,0 z"
         inkscape:connector-curvature="0" />
    </clipPath>
    <clipPath
       id="clipPath4906"
       clipPathUnits="userSpaceOnUse">
      <path
         id="path4908"
         d="m 748,734 400,0 0,271 -400,0 0,-271 z"
         inkscape:connector-curvature="0" />
    </clipPath>
    <clipPath
       id="clipPath4884"
       clipPathUnits="userSpaceOnUse">
      <path
         id="path4886"
         d="M 0,0 400,0 400,599 0,599 0,0 z"
         inkscape:connector-curvature="0" />
    </clipPath>
    <clipPath
       id="clipPath4880"
       clipPathUnits="userSpaceOnUse">
      <path
         id="path4882"
         d="M 0,0 400,0 400,599 0,599 0,0 z"
         inkscape:connector-curvature="0" />
    </clipPath>
    <clipPath
       id="clipPath4872"
       clipPathUnits="userSpaceOnUse">
      <path
         id="path4874"
         d="m 343,362 400,0 0,599 -400,0 0,-599 z"
         inkscape:connector-curvature="0" />
    </clipPath>
    <clipPath
       id="clipPath4850"
       clipPathUnits="userSpaceOnUse">
      <path
         id="path4852"
         d="M 0,0 400,0 400,263 0,263 0,0 z"
         inkscape:connector-curvature="0" />
    </clipPath>
    <clipPath
       id="clipPath4846"
       clipPathUnits="userSpaceOnUse">
      <path
         id="path4848"
         d="M 0,0 400,0 400,263 0,263 0,0 z"
         inkscape:connector-curvature="0" />
    </clipPath>
    <clipPath
       id="clipPath4838"
       clipPathUnits="userSpaceOnUse">
      <path
         id="path4840"
         d="m 343,96 400,0 0,263 -400,0 0,-263 z"
         inkscape:connector-curvature="0" />
    </clipPath>
    <clipPath
       id="clipPath4816"
       clipPathUnits="userSpaceOnUse">
      <path
         id="path4818"
         d="M 0,0 400,0 400,667 0,667 0,0 z"
         inkscape:connector-curvature="0" />
    </clipPath>
    <clipPath
       id="clipPath4812"
       clipPathUnits="userSpaceOnUse">
      <path
         id="path4814"
         d="M 0,0 400,0 400,667 0,667 0,0 z"
         inkscape:connector-curvature="0" />
    </clipPath>
    <clipPath
       id="clipPath4804"
       clipPathUnits="userSpaceOnUse">
      <path
         id="path4806"
         d="m 748,63 400,0 0,667 -400,0 0,-667 z"
         inkscape:connector-curvature="0" />
    </clipPath>
    <clipPath
       id="clipPath4792"
       clipPathUnits="userSpaceOnUse">
      <path
         id="path4794"
         d="m 58,58 1108,0 0,1467 -1108,0 0,-1467 z"
         inkscape:connector-curvature="0" />
    </clipPath>
    <clipPath
       id="clipPath4492"
       clipPathUnits="userSpaceOnUse">
      <path
         id="path4494"
         d="m 0,0 1527.2433,0 0,1976.4325 L 0,1976.4325 0,0 z"
         inkscape:connector-curvature="0" />
    </clipPath>
  </defs>
  <sodipodi:namedview
     id="base"
     pagecolor="#ffffff"
     bordercolor="#666666"
     borderopacity="1.0"
     inkscape:pageopacity="0.0"
     inkscape:pageshadow="2"
     inkscape:zoom="2.8"
     inkscape:cx="118.51432"
     inkscape:cy="32.705092"
     inkscape:document-units="px"
     inkscape:current-layer="layer1"
     showgrid="false"
     fit-margin-top="0"
     fit-margin-left="0"
     fit-margin-right="0"
     fit-margin-bottom="0"
     inkscape:window-width="1235"
     inkscape:window-height="738"
     inkscape:window-x="519"
     inkscape:window-y="108"
     inkscape:window-maximized="0" />
  <metadata
     id="metadata7">
    <rdf:RDF>
      <cc:Work
         rdf:about="">
        <dc:format>image/svg+xml</dc:format>
        <dc:type
           rdf:resource="http://purl.org/dc/dcmitype/StillImage" />
        <dc:title></dc:title>
      </cc:Work>
    </rdf:RDF>
  </metadata>
  <g
     inkscape:label="Layer 1"
     inkscape:groupmode="layer"
     id="layer1"
     transform="translate(-3.7188195,6.8088389)">
    <g
       style="font-size:6.76214981px"
       id="text5322">
      <path
         d="m 18.640725,6.2730302 c 1.329223,0.2393932 2.396969,0.7785025 3.203241,1.6173296 0.806235,0.8388453 1.209362,1.879328 1.209381,3.1214512 -1.9e-5,1.830617 -0.621084,3.279712 -1.863195,4.34729 -1.242147,1.067581 -3.377306,1.601371 -6.405484,1.601371 l -8.9229912,0 0,-20.427327 8.8571612,0 c 2.832682,2.04e-5 4.826373,0.4684786 5.981078,1.4053761 1.154671,0.9369356 1.732015,2.24422999 1.732034,3.9218872 -1.9e-5,2.2442261 -1.263759,3.7150986 -3.791225,4.4126219 z M 17.235349,2.7102171 C 17.235336,1.1848328 16.233254,0.42213359 14.229101,0.42211705 l -3.334402,0 0,4.70686315 3.072078,0 c 2.179036,1.18e-5 3.268559,-0.8062418 3.268572,-2.4187631 z M 14.391682,13.0715 c 2.288087,4e-6 3.432136,-0.784473 3.43215,-2.353432 -1.4e-5,-1.5689461 -1.198257,-2.3534225 -3.594731,-2.3534311 l -3.334402,0 0,4.7068631 3.496983,0 z"
         style="font-size:32.68372345px;font-variant:normal;font-weight:normal;writing-mode:lr-tb;fill:#333333;fill-opacity:1;fill-rule:nonzero;stroke:none;font-family:FreightSans Pro Bold;-inkscape-font-specification:FreightSans Pro"
         id="path6176" />
    </g>
    <g
       style="font-size:6.76214981px"
       id="text5326">
      <path
         d="m 28.544583,8.1033107 0,8.8571613 -5.03402,0 0,-14.9364854 5.03402,-0.6213977 0,2.2232672 c 0.893023,-1.569272 2.113208,-2.3539146 3.660561,-2.3539303 0.871076,1.57e-5 1.709912,0.207148 2.516511,0.6213977 L 33.708268,6.337863 C 33.09783,6.0333259 32.465794,5.881052 31.812157,5.881041 c -1.329248,1.1e-5 -2.418438,0.7407669 -3.267574,2.2222697 z"
         style="font-size:32.68372345px;font-variant:normal;font-weight:normal;writing-mode:lr-tb;fill:#333333;fill-opacity:1;fill-rule:nonzero;stroke:none;font-family:FreightSans Pro Bold;-inkscape-font-specification:FreightSans Pro"
         id="path6179" />
    </g>
    <g
       style="font-size:6.76214981px"
       id="text5330">
      <path
         d="m 50.082453,1.7626604 -5.490841,14.4786656 -0.751064,1.993859 c -0.762709,2.157101 -1.650752,3.660556 -2.66413,4.51037 -1.013394,0.849802 -2.347951,1.274706 -4.003676,1.274713 -1.590568,-7e-6 -3.094023,-0.326831 -4.51037,-0.980472 l 1.503124,-3.824139 c 1.045968,0.457484 1.830278,0.686228 2.352933,0.686231 0.545257,-3e-6 0.970327,-0.130666 1.275212,-0.39199 0.304875,-0.261328 0.59895,-0.75173 0.882225,-1.471206 l 0.424904,-1.175968 -5.948661,-15.1000636 5.393094,0 3.235656,10.0012116 2.941416,-10.0012116 z"
         style="font-size:32.68372345px;font-variant:normal;font-weight:normal;writing-mode:lr-tb;fill:#333333;fill-opacity:1;fill-rule:nonzero;stroke:none;font-family:FreightSans Pro Bold;-inkscape-font-specification:FreightSans Pro"
         id="path6182" />
    </g>
    <g
       style="font-size:6.76214981px"
       id="text5334">
      <path
         d="m 62.012346,16.208411 c -1.351196,0.828531 -3.203418,1.242795 -5.556671,1.242796 -2.549433,-1e-6 -4.559415,-0.691883 -6.029952,-2.075648 -1.470543,-1.383762 -2.205813,-3.350356 -2.205812,-5.8997872 -1e-6,-2.5055294 0.757212,-4.4992199 2.271642,-5.9810775 1.514424,-1.4818307 3.546017,-2.2227528 6.094785,-2.2227685 2.200979,1.57e-5 4.04223,0.4249196 5.523756,1.2747131 L 61.129623,6.337863 C 59.757149,5.5538959 58.417272,5.1619071 57.109987,5.1618953 c -1.176974,1.18e-5 -2.097765,0.3813614 -2.762377,1.14405 -0.664626,0.7627099 -0.996935,1.7647917 -0.996929,3.0062483 -6e-6,1.3292454 0.348761,2.3642424 1.046302,3.1049934 0.697527,0.740761 1.645415,1.111139 2.843667,1.111135 1.437615,4e-6 2.777492,-0.381346 4.019636,-1.14405 z"
         style="font-size:32.68372345px;font-variant:normal;font-weight:normal;writing-mode:lr-tb;fill:#333333;fill-opacity:1;fill-rule:nonzero;stroke:none;font-family:FreightSans Pro Bold;-inkscape-font-specification:FreightSans Pro"
         id="path6185" />
    </g>
    <g
       style="font-size:6.76214981px"
       id="text5338">
      <path
         d="m 67.862661,10.489159 0,0.06483 c 0.0871,1.024696 0.473772,1.814825 1.160008,2.370387 0.686223,0.555571 1.639431,0.833355 2.859627,0.833352 1.612497,3e-6 3.268558,-0.490399 4.968189,-1.471207 l 0.490735,3.88997 c -1.612523,0.827865 -3.584436,1.241797 -5.915746,1.241798 -2.614599,-1e-6 -4.684592,-0.697369 -6.209987,-2.092106 -1.525402,-1.394734 -2.288102,-3.34487 -2.288101,-5.8504142 -10e-7,-2.4623075 0.762699,-4.4451926 2.288101,-5.9486611 1.525395,-1.5034417 3.50828,-2.2551692 5.948661,-2.2551849 2.113206,1.57e-5 3.752644,0.5775259 4.918317,1.7325326 1.165646,1.1550345 1.748476,2.7020439 1.748492,4.6410328 -1.6e-5,1.0679213 -0.108736,1.9612835 -0.326159,2.6800888 z m 0.03292,-2.5165114 5.261433,-0.032915 0,-0.2942413 c -1.1e-5,-1.9389889 -0.77335,-2.908488 -2.320018,-2.9085003 -0.827873,1.23e-5 -1.503298,0.3105446 -2.026275,0.9315979 -0.522991,0.6210759 -0.828038,1.3890947 -0.91514,2.3040588 z"
         style="font-size:32.68372345px;font-variant:normal;font-weight:normal;writing-mode:lr-tb;fill:#333333;fill-opacity:1;fill-rule:nonzero;stroke:none;font-family:FreightSans Pro Bold;-inkscape-font-specification:FreightSans Pro"
         id="path6188" />
    </g>
    <g
       style="font-size:6.76214981px"
       id="text5342">
      <path
         d="m 94.36925,16.960472 -14.936485,0 0,-20.427327 14.936485,0 0,4.18321333 -9.837633,0 0,3.92188727 7.909605,0 0,4.1512956 -7.909605,0 0,3.9877178 9.837633,0 z"
         style="font-size:32.68372345px;font-variant:normal;font-weight:normal;writing-mode:lr-tb;fill:#2298b4;fill-opacity:1;fill-rule:nonzero;stroke:none;font-family:FreightSans Pro Bold;-inkscape-font-specification:FreightSans Pro"
         id="path6191" />
    </g>
    <g
       style="font-size:6.76214981px"
       id="text5346">
      <path
         d="m 110.8092,1.7626604 -5.75216,15.2307266 -5.687338,0 -5.621505,-15.2307266 5.393094,0 3.136909,10.4261156 3.105,-10.4261156 z"
         style="font-size:32.68372345px;font-variant:normal;font-weight:normal;writing-mode:lr-tb;fill:#2298b4;fill-opacity:1;fill-rule:nonzero;stroke:none;font-family:FreightSans Pro Bold;-inkscape-font-specification:FreightSans Pro"
         id="path6194" />
    </g>
    <g
       style="font-size:6.76214981px"
       id="text5350">
      <path
         d="m 117.70504,13.103418 0,-2.908501 c -1.56863,0.174224 -2.66896,0.430231 -3.30099,0.76802 -0.63204,0.337801 -0.94806,0.844494 -0.94806,1.52008 0,0.479435 0.17438,0.87159 0.52315,1.176467 0.34876,0.304883 0.80642,0.457323 1.37296,0.457321 0.95886,2e-6 1.74317,-0.337793 2.35294,-1.013387 z m 0.13066,2.026774 -0.0978,0 c -1.3073,1.547343 -2.7672,2.321014 -4.37971,2.321015 -1.3073,-1e-6 -2.40762,-0.408613 -3.30098,-1.225839 -0.89337,-0.817225 -1.34005,-1.81432 -1.34005,-2.991287 0,-3.4205064 2.99594,-5.2178701 8.98783,-5.3920964 l 0,-0.2942413 c -1e-5,-0.8065766 -0.21247,-1.3950586 -0.63736,-1.7654477 -0.42491,-0.3703668 -1.10582,-0.5555557 -2.04273,-0.5555675 -1.39441,1.18e-5 -3.11564,0.5120243 -5.16369,1.5360393 l -1.0463,-3.6924788 c 2.26615,-1.1988935 4.59781,-1.7983471 6.99496,-1.7983628 2.52748,1.57e-5 4.32501,0.5502629 5.3926,1.6507435 1.06756,1.1005085 1.57974,2.7618896 1.53654,4.9841481 l -0.0329,4.5103696 c -1e-5,0.501378 0.0708,0.822882 0.21245,0.964513 0.14162,0.141638 0.48474,0.234067 1.02935,0.277285 l -0.49074,3.595728 c -3.00692,0.392321 -4.88075,-0.315852 -5.6215,-2.124521 z"
         style="font-size:32.68372345px;font-variant:normal;font-weight:normal;writing-mode:lr-tb;fill:#2298b4;fill-opacity:1;fill-rule:nonzero;stroke:none;font-family:FreightSans Pro Bold;-inkscape-font-specification:FreightSans Pro"
         id="path6197" />
    </g>
    <g
       style="font-size:6.76214981px"
       id="text5354">
      <path
         d="m 138.85167,16.960472 -5.03303,0 0,-8.9878244 c -10e-6,-0.8717422 -0.17988,-1.4928068 -0.5396,-1.8631956 -0.35975,-0.3703671 -0.89903,-0.5555561 -1.61783,-0.5555675 -0.98082,1.14e-5 -1.89579,0.3813611 -2.74493,1.1440501 l 0,10.2625374 -5.03401,0 0,-14.9364854 5.03401,-0.6213977 0,2.4845933 c 1.52473,-1.7434895 3.22401,-2.6152407 5.09786,-2.6152564 1.50344,1.57e-5 2.68556,0.4631543 3.54636,1.3894173 0.86076,0.9262916 1.29115,2.206323 1.29117,3.8400981 z"
         style="font-size:32.68372345px;font-variant:normal;font-weight:normal;writing-mode:lr-tb;fill:#2298b4;fill-opacity:1;fill-rule:nonzero;stroke:none;font-family:FreightSans Pro Bold;-inkscape-font-specification:FreightSans Pro"
         id="path6200" />
    </g>
    <g
       style="font-size:6.76214981px"
       id="text5358">
      <path
         d="m 151.30435,9.1815305 c 0.9369,0.7407636 1.40536,1.8302865 1.40538,3.2685715 -2e-5,1.438295 -0.61011,2.631384 -1.83028,3.579271 -1.2202,0.947889 -2.90885,1.421833 -5.06594,1.421834 -1.08986,-1e-6 -2.24489,-0.119858 -3.46507,-0.359573 -1.22019,-0.239715 -2.21163,-0.566705 -2.97433,-0.980971 l 0.98047,-3.627646 c 1.85256,0.958865 3.70478,1.438295 5.55668,1.438292 1.37245,3e-6 2.05868,-0.414262 2.05869,-1.242796 -1e-5,-0.391652 -0.19601,-0.696532 -0.58799,-0.914641 -0.39199,-0.218099 -1.05645,-0.435871 -1.99336,-0.653316 -1.89578,-0.371037 -3.3339,-0.937741 -4.31437,-1.7001158 -0.98048,-0.7623592 -1.47071,-1.8517158 -1.47071,-3.2680731 0,-1.438279 0.59912,-2.6095909 1.79737,-3.5139391 1.19824,-0.9043196 2.83235,-1.3564865 4.90236,-1.3565022 1.00273,1.57e-5 2.09242,0.125359 3.26907,0.3760304 1.17662,0.250702 2.14595,0.5612343 2.908,0.9315978 l -1.01239,3.5957282 c -1.87385,-0.9156272 -3.61702,-1.3734463 -5.22952,-1.3734584 -1.24213,1.21e-5 -1.8632,0.3813617 -1.86319,1.14405 -1e-5,0.3923323 0.20696,0.6920592 0.6209,0.8991814 0.41392,0.2071425 1.07837,0.408789 1.99336,0.6049401 1.93965,0.4136093 3.37794,0.9907871 4.31487,1.7315352 z"
         style="font-size:32.68372345px;font-variant:normal;font-weight:normal;writing-mode:lr-tb;fill:#2298b4;fill-opacity:1;fill-rule:nonzero;stroke:none;font-family:FreightSans Pro Bold;-inkscape-font-specification:FreightSans Pro"
         id="path6203" />
    </g>
    <g
       style="font-size:6.76214981px"
       id="text5362">
      <path
         d="m 45.538706,23.531137 c 0.458126,-0.473487 0.946407,-0.710232 1.464844,-0.710238 0.653712,6e-6 1.190947,0.247987 1.611706,0.743944 0.420748,0.495967 0.631125,1.157135 0.631131,1.983507 -6e-6,0.84151 -0.255439,1.525263 -0.7663,2.051262 -0.510871,0.526 -1.130766,0.789 -1.859687,0.789 -0.360683,0 -0.721247,-0.05641 -1.081694,-0.169219 l 0,2.3443 -1.735869,0 0,-7.483462 1.735869,-0.214275 z m 0,1.036637 0,0 0,0 0,0 0,0.01135 0,0 0,0 0,0.01135 0,0 0,0.01135 0,0.01101 0,0 0,0.01135 0,0.01135 0,0.01135 0,0.01135 0,0.01101 0,0.01135 0,0.01135 0,0.01135 0,0.01101 0,0.01135 0,0.01135 0,0.01135 0,0.01101 0,0.01135 0,0.01135 0,0.01135 0,0.01135 0,0.01101 0,0.01135 0,0.01135 0,0.01135 0,0.01101 0,0.01135 0,0.01135 0,0.01135 0,0.01101 0,0.01135 0,0.01135 0,0.01135 0,0.01135 0,0.01101 0,0.01135 0,0.01135 0,0.01135 0,0.01101 0,0.01135 0,0.0227 0,0.01101 0,0.01135 0,0.01135 0,0.01135 0,0.01101 0,0.01135 0,0.01135 0,0.0227 0,0.01101 0,0.01135 0,0.01135 0,0.01135 0,0.02236 0,0.01135 0,0.01135 0,0.01101 0,0.0227 0,0.01135 0,0.01135 0,0.01101 0,0.0227 0,0.01135 0,0.01101 0,0.0227 0,0.01135 0,0.01101 0,0.0227 0,0.01135 0,0.01135 0,0.02236 0,0.01135 0,0.02236 0,0.01135 0,0.01135 0,0.02236 0,0.01135 0,0.0227 0,0.01135 0,0.01101 0,0.0227 0,0.01135 0,0.02236 0,0.01135 0,0.02236 0,0.01135 0,0.0227 0,0.01135 0,0.02236 0,0.01135 0,0.02236 0,0.01135 0,0.0227 0,0.01101 0,0.0227 0,0.01135 0,0.02236 0,0.0227 0,0.01135 0,0.02236 0,0.01135 0,0.02236 0,0.01135 0,0.0227 0,0.02236 0,0.01135 0,0.0227 0,0.02236 0,0.01135 0,0.02236 0,0.0227 0,0.01135 0,0.02236 0,0.0227 0,0.01135 0,0.02236 0,0.0227 0,0.01101 0,0.0227 0,0.02236 0,0.01135 0,0.0227 0,0.02236 0,0.0227 0,0.01135 0,0.02236 0,0.0227 0,0.02236 0,0.01135 0,0.02236 0,0.0227 0,0.0227 0,0.01101 0,0.0227 0,0.02236 0,0.0227 0,0.02236 0,0.01135 0,0.0227 0,0.02236 0,0.0227 0,0.02236 0,0.0227 0,0.101462 c 0.217827,0.142622 0.484495,0.213933 0.800006,0.213932 0.368243,10e-7 0.655662,-0.131442 0.86226,-0.394329 0.206589,-0.262883 0.309886,-0.616053 0.30989,-1.059509 -4e-6,-0.450789 -0.0939,-0.802009 -0.281687,-1.053662 -0.187796,-0.251647 -0.458362,-0.377471 -0.8117,-0.377475 -0.323078,4e-6 -0.616001,0.120153 -0.878769,0.360449 z"
         style="font-size:11.27025032px;font-variant:normal;font-weight:normal;writing-mode:lr-tb;fill:#333333;fill-opacity:1;fill-rule:nonzero;stroke:none;font-family:FreightSans Pro Bold;-inkscape-font-specification:FreightSans Pro"
         id="path6206" />
    </g>
    <g
       style="font-size:6.76214981px"
       id="text5366">
      <path
         d="m 59.276956,28.230743 -1.735525,0 0,-3.09925 c -4e-6,-0.556034 -0.240419,-0.834052 -0.721244,-0.834056 -0.353345,4e-6 -0.67642,0.131504 -0.969225,0.3945 l 0,3.538806 -1.735869,0 0,-7.449756 1.735869,-0.213931 0,3.144306 c 0.51843,-0.593637 1.108174,-0.890457 1.769231,-0.890463 0.518429,6e-6 0.924164,0.161543 1.217206,0.484613 0.293032,0.32308 0.439551,0.762635 0.439557,1.318669 z"
         style="font-size:11.27025032px;font-variant:normal;font-weight:normal;writing-mode:lr-tb;fill:#333333;fill-opacity:1;fill-rule:nonzero;stroke:none;font-family:FreightSans Pro Bold;-inkscape-font-specification:FreightSans Pro"
         id="path6209" />
    </g>
    <g
       style="font-size:6.76214981px"
       id="text5370">
      <path
         d="m 68.879119,23.564843 c 0.518428,0.495967 0.777644,1.172211 0.77765,2.028735 -6e-6,0.856529 -0.270457,1.53839 -0.811356,2.045587 -0.540909,0.507198 -1.217095,0.760797 -2.028562,0.760797 -0.811474,0 -1.478317,-0.246089 -2.000532,-0.738269 -0.522217,-0.492178 -0.783325,-1.170314 -0.783325,-2.034409 0,-0.86409 0.270509,-1.547844 0.811528,-2.051263 0.541018,-0.503409 1.22093,-0.755116 2.039741,-0.755122 0.811467,6e-6 1.476418,0.247987 1.994856,0.743944 z m -0.946525,2.039913 c -4e-6,-0.450789 -0.09579,-0.807684 -0.287362,-1.070688 -0.191579,-0.262996 -0.460196,-0.394496 -0.805853,-0.3945 -0.345663,4e-6 -0.612389,0.131504 -0.800178,0.3945 -0.187794,0.263004 -0.28169,0.623683 -0.281688,1.082038 -2e-6,0.450794 0.09389,0.805798 0.281688,1.065012 0.187789,0.259218 0.458241,0.388827 0.811356,0.388825 0.353109,2e-6 0.621726,-0.129607 0.805853,-0.388825 0.184119,-0.259214 0.27618,-0.618002 0.276184,-1.076362 z"
         style="font-size:11.27025032px;font-variant:normal;font-weight:normal;writing-mode:lr-tb;fill:#333333;fill-opacity:1;fill-rule:nonzero;stroke:none;font-family:FreightSans Pro Bold;-inkscape-font-specification:FreightSans Pro"
         id="path6212" />
    </g>
    <g
       style="font-size:6.76214981px"
       id="text5374">
      <path
         d="m 78.188578,28.208043 c -0.420758,0.127946 -0.845295,0.191919 -1.273613,0.191919 -0.668623,0 -1.164527,-0.150302 -1.487715,-0.450906 -0.323191,-0.300604 -0.469652,-0.785216 -0.439385,-1.453838 l 0.07876,-1.994856 -0.789,-0.135169 0.03371,-1.104737 0.789,-0.258988 0.0227,-1.19485 1.679119,0 -0.01135,1.250913 1.307319,0 -0.03371,1.363725 -1.397431,0 -0.05641,1.882387 c -0.02247,0.45836 0.206706,0.687539 0.687537,0.687538 0.187789,10e-7 0.416968,-0.04517 0.687538,-0.135513 z"
         style="font-size:11.27025032px;font-variant:normal;font-weight:normal;writing-mode:lr-tb;fill:#333333;fill-opacity:1;fill-rule:nonzero;stroke:none;font-family:FreightSans Pro Bold;-inkscape-font-specification:FreightSans Pro"
         id="path6215" />
    </g>
    <g
       style="font-size:6.76214981px"
       id="text5378">
      <path
         d="m 87.587738,23.564843 c 0.518427,0.495967 0.777644,1.172211 0.77765,2.028735 -6e-6,0.856529 -0.270458,1.53839 -0.811357,2.045587 -0.540908,0.507198 -1.217095,0.760797 -2.028562,0.760797 -0.811473,0 -1.478316,-0.246089 -2.000532,-0.738269 -0.522217,-0.492178 -0.783325,-1.170314 -0.783325,-2.034409 0,-0.86409 0.270509,-1.547844 0.811529,-2.051263 0.541017,-0.503409 1.22093,-0.755116 2.03974,-0.755122 0.811467,6e-6 1.476419,0.247987 1.994857,0.743944 z m -0.946525,2.039913 c -5e-6,-0.450789 -0.09579,-0.807684 -0.287363,-1.070688 -0.191579,-0.262996 -0.460196,-0.394496 -0.805853,-0.3945 -0.345663,4e-6 -0.612389,0.131504 -0.800178,0.3945 -0.187794,0.263004 -0.28169,0.623683 -0.281688,1.082038 -2e-6,0.450794 0.09389,0.805798 0.281688,1.065012 0.187789,0.259218 0.458241,0.388827 0.811356,0.388825 0.353109,2e-6 0.621726,-0.129607 0.805853,-0.388825 0.184119,-0.259214 0.27618,-0.618002 0.276185,-1.076362 z"
         style="font-size:11.27025032px;font-variant:normal;font-weight:normal;writing-mode:lr-tb;fill:#333333;fill-opacity:1;fill-rule:nonzero;stroke:none;font-family:FreightSans Pro Bold;-inkscape-font-specification:FreightSans Pro"
         id="path6218" />
    </g>
    <g
       style="font-size:6.76214981px"
       id="text5382">
      <path
         d="m 94.89099,24.860812 c -2e-6,0.285703 0.06947,0.511156 0.208428,0.676359 0.13895,0.165209 0.343709,0.247812 0.614278,0.24781 0.510863,2e-6 0.766296,-0.323072 0.7663,-0.969225 -4e-6,-0.285467 -0.06759,-0.510863 -0.202753,-0.676188 -0.135172,-0.165316 -0.334256,-0.247977 -0.597253,-0.247981 -0.248099,4e-6 -0.441622,0.08828 -0.580572,0.264834 -0.138954,0.17656 -0.20843,0.411357 -0.208428,0.704391 z m -0.07876,3.91095 c -0.278135,0.135283 -0.417201,0.326858 -0.4172,0.574725 -10e-7,0.202924 0.120206,0.368245 0.360622,0.495963 0.240413,0.127715 0.559761,0.191573 0.958047,0.191575 0.435884,-2e-6 0.79278,-0.06386 1.070688,-0.191575 0.277899,-0.127718 0.416851,-0.300606 0.416856,-0.518663 -5e-6,-0.202697 -0.105193,-0.339757 -0.315566,-0.411181 -0.210381,-0.07143 -0.555984,-0.107138 -1.036809,-0.107138 -0.307945,0 -0.65349,-0.01124 -1.036638,-0.03371 z M 94.12469,28.580187 c -0.255435,-0.07521 -0.471429,-0.195473 -0.647985,-0.360794 -0.176556,-0.16532 -0.264834,-0.360678 -0.264834,-0.586075 0,-0.247865 0.101405,-0.48077 0.304216,-0.698715 0.202809,-0.217943 0.461968,-0.371971 0.777478,-0.462085 -0.323076,-0.150185 -0.580401,-0.368071 -0.771975,-0.653659 -0.191576,-0.285583 -0.287363,-0.6086 -0.287363,-0.969053 0,-0.586071 0.225395,-1.070741 0.676188,-1.45401 0.45079,-0.383259 1.055666,-0.574891 1.814631,-0.574897 0.525997,6e-6 1.059448,0.124054 1.600356,0.372144 l 1.476194,-0.124162 0.07911,1.408781 -1.014281,-0.157525 c 0.09767,0.112587 0.146514,0.304162 0.146519,0.574725 -5e-6,0.53334 -0.216057,0.98224 -0.648156,1.3467 -0.432109,0.364464 -0.982471,0.546695 -1.651088,0.546694 -0.165324,1e-6 -0.398286,-0.02637 -0.698888,-0.07911 -0.202697,0.112814 -0.304045,0.24053 -0.304043,0.38315 -2e-6,0.218059 0.319289,0.327088 0.957875,0.327087 l 0,0 0.01135,0 0.01101,0 0.01135,0 0.01135,0 0.01135,0 0.01135,0 0.01101,0 0.01135,0 0.01135,0 0.02236,0 0.01135,0 0.01135,0 0.01135,0 0.01101,0 0.0227,0 0.01135,0 0.01135,0 0.02236,0 0.01135,0 0.02236,0 0.01135,0 0.0227,0 0.01101,0 0.0227,0 0.0227,0 0.01101,0 0.0227,0 0.02236,0 0.0227,0 0.02236,0 0.01135,0 0.0227,0 0.02236,0 0.101463,0 c 1.61537,1e-6 2.423057,0.492065 2.423063,1.476194 -6e-6,0.631244 -0.324973,1.147843 -0.974901,1.549797 -0.649937,0.401949 -1.418128,0.602925 -2.304574,0.602928 -0.743831,-3e-6 -1.356217,-0.116484 -1.83716,-0.349444 -0.480944,-0.232965 -0.721416,-0.571058 -0.721416,-1.014281 0,-0.270568 0.108972,-0.51104 0.326916,-0.721416 0.217943,-0.210377 0.526057,-0.338037 0.924341,-0.382978 z"
         style="font-size:11.27025032px;font-variant:normal;font-weight:normal;writing-mode:lr-tb;fill:#333333;fill-opacity:1;fill-rule:nonzero;stroke:none;font-family:FreightSans Pro Bold;-inkscape-font-specification:FreightSans Pro"
         id="path6221" />
    </g>
    <g
       style="font-size:6.76214981px"
       id="text5386">
      <path
         d="m 105.0343,25.17655 0,3.054193 -1.73587,0 0,-5.150512 1.73587,-0.214275 0,0.766644 c 0.30794,-0.541129 0.72869,-0.811695 1.26226,-0.811701 0.30037,6e-6 0.58963,0.07143 0.86777,0.214276 l -0.34945,1.532599 c -0.21049,-0.105012 -0.42844,-0.157521 -0.65383,-0.157524 -0.45836,3e-6 -0.83394,0.255437 -1.12675,0.7663 z"
         style="font-size:11.27025032px;font-variant:normal;font-weight:normal;writing-mode:lr-tb;fill:#333333;fill-opacity:1;fill-rule:nonzero;stroke:none;font-family:FreightSans Pro Bold;-inkscape-font-specification:FreightSans Pro"
         id="path6224" />
    </g>
    <g
       style="font-size:6.76214981px"
       id="text5390">
      <path
         d="m 114.63626,26.900725 0,-1.002932 c -0.54091,0.06008 -0.92033,0.148356 -1.13827,0.264835 -0.21795,0.116483 -0.32692,0.291205 -0.32692,0.524165 0,0.165323 0.0601,0.300549 0.1804,0.405679 0.12026,0.105132 0.27807,0.157697 0.47343,0.157696 0.33064,1e-6 0.60109,-0.11648 0.81136,-0.349443 z m 0.0451,0.698887 -0.0337,0 c -0.4508,0.533567 -0.95421,0.80035 -1.51025,0.80035 -0.45079,0 -0.83021,-0.140901 -1.13827,-0.422703 -0.30806,-0.281802 -0.46208,-0.625627 -0.46208,-1.031478 0,-1.179485 1.03308,-1.799266 3.09925,-1.859344 l 0,-0.101462 c -10e-6,-0.27813 -0.0733,-0.481055 -0.21978,-0.608776 -0.14652,-0.127712 -0.38132,-0.19157 -0.70439,-0.191575 -0.48083,5e-6 -1.07436,0.176561 -1.78058,0.529669 l -0.3608,-1.273268 c 0.78144,-0.413412 1.58545,-0.62012 2.41206,-0.620126 0.87154,6e-6 1.49138,0.189746 1.85952,0.569222 0.36812,0.379486 0.54474,0.952376 0.52984,1.718672 l -0.0113,1.5553 c -1e-5,0.172889 0.0244,0.283753 0.0733,0.332591 0.0488,0.04884 0.16715,0.08071 0.35494,0.09562 l -0.16922,1.239906 c -1.03687,0.135283 -1.68302,-0.108915 -1.93845,-0.732594 z"
         style="font-size:11.27025032px;font-variant:normal;font-weight:normal;writing-mode:lr-tb;fill:#333333;fill-opacity:1;fill-rule:nonzero;stroke:none;font-family:FreightSans Pro Bold;-inkscape-font-specification:FreightSans Pro"
         id="path6227" />
    </g>
    <g
       style="font-size:6.76214981px"
       id="text5394">
      <path
         d="m 123.01031,23.531137 c 0.45813,-0.473487 0.94641,-0.710232 1.46485,-0.710238 0.65371,6e-6 1.19094,0.247987 1.6117,0.743944 0.42075,0.495967 0.63113,1.157135 0.63113,1.983507 0,0.84151 -0.25543,1.525263 -0.7663,2.051262 -0.51087,0.526 -1.13076,0.789 -1.85968,0.789 -0.36069,0 -0.72125,-0.05641 -1.0817,-0.169219 l 0,2.3443 -1.73587,0 0,-7.483462 1.73587,-0.214275 z m 0,1.036637 0,0 0,0 0,0 0,0.01135 0,0 0,0 0,0.01135 0,0 0,0.01135 0,0.01101 0,0 0,0.01135 0,0.01135 0,0.01135 0,0.01135 0,0.01101 0,0.01135 0,0.01135 0,0.01135 0,0.01101 0,0.01135 0,0.01135 0,0.01135 0,0.01101 0,0.01135 0,0.01135 0,0.01135 0,0.01135 0,0.01101 0,0.01135 0,0.01135 0,0.01135 0,0.01101 0,0.01135 0,0.01135 0,0.01135 0,0.01101 0,0.01135 0,0.01135 0,0.01135 0,0.01135 0,0.01101 0,0.01135 0,0.01135 0,0.01135 0,0.01101 0,0.01135 0,0.0227 0,0.01101 0,0.01135 0,0.01135 0,0.01135 0,0.01101 0,0.01135 0,0.01135 0,0.0227 0,0.01101 0,0.01135 0,0.01135 0,0.01135 0,0.02236 0,0.01135 0,0.01135 0,0.01101 0,0.0227 0,0.01135 0,0.01135 0,0.01101 0,0.0227 0,0.01135 0,0.01101 0,0.0227 0,0.01135 0,0.01101 0,0.0227 0,0.01135 0,0.01135 0,0.02236 0,0.01135 0,0.02236 0,0.01135 0,0.01135 0,0.02236 0,0.01135 0,0.0227 0,0.01135 0,0.01101 0,0.0227 0,0.01135 0,0.02236 0,0.01135 0,0.02236 0,0.01135 0,0.0227 0,0.01135 0,0.02236 0,0.01135 0,0.02236 0,0.01135 0,0.0227 0,0.01101 0,0.0227 0,0.01135 0,0.02236 0,0.0227 0,0.01135 0,0.02236 0,0.01135 0,0.02236 0,0.01135 0,0.0227 0,0.02236 0,0.01135 0,0.0227 0,0.02236 0,0.01135 0,0.02236 0,0.0227 0,0.01135 0,0.02236 0,0.0227 0,0.01135 0,0.02236 0,0.0227 0,0.01101 0,0.0227 0,0.02236 0,0.01135 0,0.0227 0,0.02236 0,0.0227 0,0.01135 0,0.02236 0,0.0227 0,0.02236 0,0.01135 0,0.02236 0,0.0227 0,0.0227 0,0.01101 0,0.0227 0,0.02236 0,0.0227 0,0.02236 0,0.01135 0,0.0227 0,0.02236 0,0.0227 0,0.02236 0,0.0227 0,0.101462 c 0.21783,0.142622 0.4845,0.213933 0.80001,0.213932 0.36824,10e-7 0.65566,-0.131442 0.86226,-0.394329 0.20659,-0.262883 0.30989,-0.616053 0.30989,-1.059509 0,-0.450789 -0.0939,-0.802009 -0.28169,-1.053662 -0.18779,-0.251647 -0.45836,-0.377471 -0.8117,-0.377475 -0.32308,4e-6 -0.616,0.120153 -0.87877,0.360449 z"
         style="font-size:11.27025032px;font-variant:normal;font-weight:normal;writing-mode:lr-tb;fill:#333333;fill-opacity:1;fill-rule:nonzero;stroke:none;font-family:FreightSans Pro Bold;-inkscape-font-specification:FreightSans Pro"
         id="path6230" />
    </g>
    <g
       style="font-size:6.76214981px"
       id="text5398">
      <path
         d="m 136.74861,28.230743 -1.73553,0 0,-3.09925 c 0,-0.556034 -0.24041,-0.834052 -0.72124,-0.834056 -0.35334,4e-6 -0.67642,0.131504 -0.96923,0.3945 l 0,3.538806 -1.73586,0 0,-7.449756 1.73586,-0.213931 0,3.144306 c 0.51844,-0.593637 1.10818,-0.890457 1.76924,-0.890463 0.51842,6e-6 0.92416,0.161543 1.2172,0.484613 0.29303,0.32308 0.43955,0.762635 0.43956,1.318669 z"
         style="font-size:11.27025032px;font-variant:normal;font-weight:normal;writing-mode:lr-tb;fill:#333333;fill-opacity:1;fill-rule:nonzero;stroke:none;font-family:FreightSans Pro Bold;-inkscape-font-specification:FreightSans Pro"
         id="path6233" />
    </g>
    <g
       style="font-size:6.76214981px"
       id="text5402">
      <path
         d="m 146.93678,22.990118 -1.89339,4.992644 -0.25899,0.687538 c -0.263,0.743828 -0.56922,1.262261 -0.91866,1.5553 -0.34945,0.293035 -0.80964,0.439554 -1.38058,0.439556 -0.54847,-2e-6 -1.06691,-0.1127 -1.5553,-0.338094 l 0.51832,-1.318669 c 0.36067,0.157754 0.63113,0.236631 0.81135,0.236632 0.18802,-10e-7 0.3346,-0.04506 0.43973,-0.135169 0.10513,-0.09011 0.20654,-0.259217 0.30422,-0.507313 l 0.14651,-0.405506 -2.05126,-5.206919 1.85969,0 1.11574,3.448694 1.01428,-3.448694 z"
         style="font-size:11.27025032px;font-variant:normal;font-weight:normal;writing-mode:lr-tb;fill:#333333;fill-opacity:1;fill-rule:nonzero;stroke:none;font-family:FreightSans Pro Bold;-inkscape-font-specification:FreightSans Pro"
         id="path6236" />
    </g>
  </g>
</svg>
